<svg id="Layer_1" data-name="Layer 1" xmlns="http://www.w3.org/2000/svg" viewBox="0 0 64.82 64.82"><defs><style>.cls-1{fill:#9e1f63;}.cls-2{fill:#fff;}</style></defs><title>AffordabilityIcon</title><circle class="cls-1" cx="32.41" cy="32.41" r="32.41"/><path class="cls-2" d="M528.7,230a1.44,1.44,0,0,0-.29.88,1.38,1.38,0,0,0,.27.81,1.84,1.84,0,0,0,.8.61v-2.86A1.55,1.55,0,0,0,528.7,230Zm2,5v3.22a1.69,1.69,0,0,0,1-.58,1.61,1.61,0,0,0,.39-1.08,1.47,1.47,0,0,0-.33-1A2.07,2.07,0,0,0,530.68,235Zm-0.62-11.33a10.53,10.53,0,1,0,10.53,10.53A10.53,10.53,0,0,0,530.06,223.68Zm3.14,15.12a4,4,0,0,1-2.52,1.25v1.55h-1.2v-1.5a3.82,3.82,0,0,1-2.32-1.07,4.39,4.39,0,0,1-1.14-2.52l2.16-.23a2.76,2.76,0,0,0,.49,1.14,2.24,2.24,0,0,0,.81.69v-3.46a4.57,4.57,0,0,1-2.38-1.4,3.36,3.36,0,0,1-.65-1.56,16.19,16.19,0,0,0,.8-3,3.44,3.44,0,0,1,2.23-1v-0.82h1.2v0.82a3.54,3.54,0,0,1,2.09.89,3.44,3.44,0,0,1,1,2l-2.09.27a1.68,1.68,0,0,0-1-1.32v3.23a5.33,5.33,0,0,1,2.7,1.39,3.29,3.29,0,0,1,.72,2.19A3.67,3.67,0,0,1,533.19,238.8Zm-3.14-19.41a14.82,14.82,0,1,0,14.82,14.82A14.82,14.82,0,0,0,530.06,219.39Zm0,26.46a11.64,11.64,0,1,1,11.64-11.64A11.64,11.64,0,0,1,530.06,245.85Zm-14.53-18.79a16.27,16.27,0,0,1,5.87-6.53,11.54,11.54,0,1,0-7.27,16.68,16.33,16.33,0,0,1-.28-3,15.93,15.93,0,0,1,.22-2.57,4.74,4.74,0,0,1-2.1.79v1.69h-1.31v-1.64a4.2,4.2,0,0,1-2.54-1.17,4.78,4.78,0,0,1-1.25-2.76l2.36-.25a3,3,0,0,0,.54,1.25,2.44,2.44,0,0,0,.88.76v-3.79a5,5,0,0,1-2.6-1.53,3.84,3.84,0,0,1-.83-2.49,3.51,3.51,0,0,1,.94-2.49,3.76,3.76,0,0,1,2.49-1.16V218H512v0.89a3.89,3.89,0,0,1,2.29,1,3.79,3.79,0,0,1,1.08,2.16l-2.28.3a1.84,1.84,0,0,0-1.09-1.44v3.53a5.83,5.83,0,0,1,3,1.52A3.23,3.23,0,0,1,515.53,227.05Zm-4.23,11.72a12.73,12.73,0,1,1,11.14-18.87,15.9,15.9,0,0,1,3.25-1.29,16.24,16.24,0,1,0-10,23,16,16,0,0,1-1.26-3.27A12.59,12.59,0,0,1,511.29,238.77Zm-1.8-16.37a1.52,1.52,0,0,0,.29.89,2,2,0,0,0,.87.66v-3.13a1.68,1.68,0,0,0-.85.62A1.57,1.57,0,0,0,509.5,222.4Zm2.48,8a1.86,1.86,0,0,0,1.1-.63,1.77,1.77,0,0,0,.42-1.18,1.6,1.6,0,0,0-.36-1,2.29,2.29,0,0,0-1.17-.67v3.52Z" transform="translate(-486.67 -196.28)"/></svg>