<svg id="Layer_1" data-name="Layer 1" xmlns="http://www.w3.org/2000/svg" viewBox="0 0 1140.82 271.09"><defs><style>.cls-1{fill:#fff;opacity:0.8;}</style></defs><title>Clouds</title><path class="cls-1" d="M1041.78,238.14c0-2.8,2.33-19.34,24.2-15.86,1-.46,7.8-10.93,23.2-11.66,5.44,0.36,27.06-.36,29.24,24.72,5.55,2.34,17.47,9.64,19.16,25.66-0.5,3.26,2,22.39-22.69,23.32h-70.1s-23.49-2.07-22.69-23.32C1022.11,255.4,1026.15,244.2,1041.78,238.14Z" transform="translate(-46.82 -84.36)"/><path class="cls-1" d="M971.39,210.79c0-2.53,2.26-17.44,23.47-14.31,1-.42,7.57-9.86,22.5-10.51,5.27,0.33,26.24-.33,28.36,22.29,5.38,2.11,16.95,8.69,18.58,23.14-0.49,2.94,2,20.19-22,21h-68s-22.78-1.86-22-21C952.31,226.36,956.23,216.26,971.39,210.79Z" transform="translate(-46.82 -84.36)"/><path class="cls-1" d="M1117.82,212.72c0-1.9,1.7-13.1,17.64-10.75,0.73-.31,5.69-7.41,16.91-7.9,4,0.25,19.72-.25,21.31,16.75,4,1.58,12.73,6.53,14,17.39-0.36,2.21,1.47,15.17-16.53,15.8H1120s-17.12-1.4-16.54-15.8C1103.49,224.41,1106.43,216.83,1117.82,212.72Z" transform="translate(-46.82 -84.36)"/><path class="cls-1" d="M152.68,300.82c0-3.32,2.76-22.88,28.63-18.77,1.19-.55,9.23-12.94,27.45-13.79,6.43,0.43,32-.43,34.6,29.25,6.57,2.76,20.67,11.4,22.67,30.36-0.59,3.86,2.39,26.49-26.84,27.59H156.26s-27.79-2.44-26.85-27.59C129.41,321.24,134.19,308,152.68,300.82Z" transform="translate(-46.82 -84.36)"/><path class="cls-1" d="M69.41,268.47c0-3,2.68-20.64,27.77-16.92,1.16-.49,9-11.67,26.62-12.44,6.24,0.39,31-.39,33.56,26.37,6.37,2.49,20,10.28,22,27.38-0.57,3.48,2.32,23.89-26,24.88H72.88s-27-2.2-26-24.88C46.84,286.88,51.47,274.94,69.41,268.47Z" transform="translate(-46.82 -84.36)"/><path class="cls-1" d="M242.64,270.75c0-2.25,2-15.5,20.87-12.72,0.87-.37,6.73-8.77,20-9.35,4.69,0.29,23.33-.29,25.21,19.81,4.78,1.87,15.06,7.72,16.52,20.57-0.43,2.62,1.74,17.95-19.56,18.69H245.25s-20.25-1.66-19.56-18.69C225.68,284.58,229.16,275.61,242.64,270.75Z" transform="translate(-46.82 -84.36)"/><path class="cls-1" d="M554.76,204.53c0-6.46,5.38-44.56,55.76-36.54,2.32-1.07,18-25.19,53.45-26.86,12.52,0.84,62.34-.84,67.37,56.95,12.79,5.38,40.25,22.2,44.14,59.12-1.15,7.52,4.65,51.58-52.27,53.72H561.73s-54.11-4.76-52.28-53.72C509.45,244.28,518.75,218.5,554.76,204.53Z" transform="translate(-46.82 -84.36)"/><path class="cls-1" d="M494.61,141.53c0-5.82,5.21-40.18,54.08-33,2.25-1,17.44-22.72,51.84-24.22,12.15,0.75,60.46-.76,65.34,51.36,12.4,4.85,39,20,42.81,53.31-1.12,6.78,4.51,46.51-50.69,48.44H501.36s-52.49-4.29-50.71-48.44C450.66,177.39,459.67,154.13,494.61,141.53Z" transform="translate(-46.82 -84.36)"/><path class="cls-1" d="M729.93,146c0-4.37,3.92-30.19,40.63-24.76,1.69-.72,13.1-17.07,38.95-18.2,9.13,0.57,45.43-.57,49.09,38.58,9.32,3.65,29.33,15,32.17,40.05-0.84,5.09,3.39,34.95-38.09,36.4H735s-39.44-3.23-38.1-36.4C696.91,172.9,703.69,155.43,729.93,146Z" transform="translate(-46.82 -84.36)"/></svg>