<svg id="Layer_1" data-name="Layer 1" xmlns="http://www.w3.org/2000/svg" viewBox="0 0 64.82 64.82"><defs><style>.cls-1{fill:#58595b;}.cls-2{fill:#fff;}</style></defs><title>CommunityIconBW</title><circle class="cls-1" cx="32.41" cy="32.41" r="32.41"/><path class="cls-2" d="M473.38,231.32a6.9,6.9,0,1,0-6.9-6.9A6.9,6.9,0,0,0,473.38,231.32ZM488,231.74a4.47,4.47,0,1,0-4.47-4.47A4.47,4.47,0,0,0,488,231.74Zm0,0.92a6,6,0,0,0-6,5.91,9.28,9.28,0,0,0-16.71-1.07,6,6,0,0,0-11.91,1.18v3.55h10.72v5.29h18.57v-5.29H494v-3.55A6,6,0,0,0,488,232.66Zm-28.61-.92a4.47,4.47,0,1,0-4.47-4.47A4.47,4.47,0,0,0,459.38,231.74Z" transform="translate(-440.31 -199.48)"/></svg>