<svg id="Layer_1" data-name="Layer 1" xmlns="http://www.w3.org/2000/svg" viewBox="0 0 64.82 64.82"><defs><style>.cls-1{fill:#da1c5c;}.cls-2{fill:#fff;}</style></defs><title>CommunityButton</title><circle class="cls-1" cx="32.41" cy="32.41" r="32.41"/><path class="cls-2" d="M618.78,302.51a6.9,6.9,0,1,0-6.9-6.9A6.9,6.9,0,0,0,618.78,302.51Zm14.62,0.42a4.47,4.47,0,1,0-4.47-4.47A4.47,4.47,0,0,0,633.4,302.93Zm0,0.92a6,6,0,0,0-6,5.91,9.28,9.28,0,0,0-16.71-1.07,6,6,0,0,0-11.91,1.18v3.55H609.5v5.29h18.57v-5.29h11.35v-3.55A6,6,0,0,0,633.4,303.85Zm-28.61-.92a4.47,4.47,0,1,0-4.47-4.47A4.47,4.47,0,0,0,604.79,302.93Z" transform="translate(-585.72 -270.67)"/></svg>