<svg id="Layer_1" data-name="Layer 1" xmlns="http://www.w3.org/2000/svg" viewBox="0 0 119.43 53.07"><defs><style>.cls-1{fill:#58595b;fill-rule:evenodd;}</style></defs><title>CommunityIcon</title><path class="cls-1" d="M586.06,286.55a5.32,5.32,0,0,0,5.07-4.88,5.37,5.37,0,0,0-4.95-5.06,5.49,5.49,0,0,0-5,5.13A5.09,5.09,0,0,0,586.06,286.55Zm9.89,7a28,28,0,0,0,0-3.77,3.2,3.2,0,0,0-3.14-2.51h-11.9c-1.25,0-2.07-.09-3,0.76-1.27,1.44-1.14,1.57-1.14,5.58v7.66c0,2-.34,5.07,1.65,5.07s1.87-1.34,1.87-3.35c0-2.83,0-3.56,0-5.23,0-1.83-.11-2.14.26-2.14s0.37,0,.37,2,0,27.13,0,28.59a2.4,2.4,0,0,0,2.56,2.6c1.88,0,2.67-1.1,2.67-2.36V313.25c0-1.25,0-1.86.35-1.86s0.27,0.61.27,1.86v13.18a2.73,2.73,0,0,0,2.71,2.48,2.93,2.93,0,0,0,2.41-2.45c0-5,0-27.35,0-28.93,0-.86-0.07-1.94.25-1.94s0.32,0.29.32,1.53v4.83c0,3.3.51,4.17,1.77,4.17,1.88,0,1.72-3.22,1.72-5v-7.53Z" transform="translate(-557.98 -276.6)"/><path class="cls-1" d="M615.31,294.39a26.63,26.63,0,0,0-1.26-3.78,3.22,3.22,0,0,0-3.15-2.52h-8.19a3.92,3.92,0,0,0-3.78,2.52l-1.26,3.78-2.52,7.56c-0.63,1.89-1.89,4.41,0,5s3.15-3.15,3.78-5l1.26-3.78c0.13-.34.38-1.44,0.88-1.26,0.31,0.13,0,.55-0.25,1.26-0.49,1.78-4.41,13.86-4.41,13.86h5v15.11c0,1.26.43,2.54,2.15,2.54a2.24,2.24,0,0,0,2.26-2.54V313.91c0-1.26,0-1.87.35-1.87s0.28,0.61.28,1.87v13.23a2.31,2.31,0,0,0,2.24,2.5,2.33,2.33,0,0,0,2.16-2.5V312h5s-3.42-12-3.9-13.89c-0.19-.88-0.43-1.22-0.12-1.41s0.21,0.05.88,2.07l1.26,3.78c0.44,1.3,1.26,4.41,2.52,4.41,1.89,0,2.52-1.26,1.26-5Zm-8.67-7a5.33,5.33,0,0,0,5.09-4.9,5.39,5.39,0,0,0-5-5.08,5.51,5.51,0,0,0-5,5.14A5.11,5.11,0,0,0,606.65,287.36Z" transform="translate(-557.98 -276.6)"/><path class="cls-1" d="M565.51,295.45a4.3,4.3,0,0,0,4.09-3.95,4.34,4.34,0,0,0-4-4.09,4.43,4.43,0,0,0-4,4.14A4.11,4.11,0,0,0,565.51,295.45Zm8,5.66a22.59,22.59,0,0,0,0-3,2.59,2.59,0,0,0-2.54-2h-9.62a3,3,0,0,0-2.43.62c-1,1.16-.92,1.27-0.92,4.51v6.19c0,1.6-.27,4.09,1.33,4.09s1.51-1.09,1.51-2.7c0-2.29,0-2.88,0-4.23s-0.09-1.73.21-1.73,0.3,0,.3,1.59,0,21.92,0,23.11a1.94,1.94,0,0,0,2.07,2.1,1.88,1.88,0,0,0,2.16-1.9V317c0-1,0-1.51.28-1.51s0.22,0.49.22,1.51v10.65a2.2,2.2,0,0,0,2.19,2,2.37,2.37,0,0,0,1.95-2c0-4.06,0-22.11,0-23.38,0-.69-0.06-1.57.2-1.57s0.25,0.24.25,1.23v3.91c0,2.67.41,3.37,1.43,3.37,1.52,0,1.39-2.61,1.39-4.06v-6.09Z" transform="translate(-557.98 -276.6)"/><path class="cls-1" d="M633.26,304.53a19,19,0,0,0-.9-2.69,2.29,2.29,0,0,0-2.24-1.8h-5.83a2.79,2.79,0,0,0-2.69,1.8l-0.9,2.69-1.79,5.39c-0.45,1.35-1.35,3.14,0,3.59s2.24-2.24,2.69-3.59l0.9-2.69c0.1-.25.27-1,0.62-0.9s0,0.39-.18.9c-0.35,1.27-3.14,9.87-3.14,9.87h3.59v10.77a1.52,1.52,0,0,0,1.53,1.81,1.59,1.59,0,0,0,1.61-1.81v-9.42c0-.9,0-1.33.25-1.33s0.2,0.44.2,1.33v9.42a1.64,1.64,0,0,0,1.6,1.78,1.66,1.66,0,0,0,1.54-1.78V317.1h3.59s-2.43-8.52-2.78-9.89c-0.13-.63-0.31-0.87-0.09-1s0.15,0,.63,1.47l0.9,2.69c0.31,0.93.9,3.14,1.79,3.14,1.35,0,1.8-.9.9-3.59Zm-6.17-5a3.8,3.8,0,0,0,3.62-3.49,3.84,3.84,0,0,0-3.54-3.62,3.92,3.92,0,0,0-3.58,3.67A3.64,3.64,0,0,0,627.08,299.52Z" transform="translate(-557.98 -276.6)"/><path class="cls-1" d="M646.07,286.55a5.32,5.32,0,0,0,5.07-4.88,5.37,5.37,0,0,0-4.95-5.06,5.49,5.49,0,0,0-5,5.13A5.09,5.09,0,0,0,646.07,286.55Zm9.89,7a28,28,0,0,0,0-3.77,3.2,3.2,0,0,0-3.14-2.51h-11.9c-1.25,0-2.07-.09-3,0.76-1.27,1.44-1.14,1.57-1.14,5.58v7.66c0,2-.34,5.07,1.65,5.07s1.87-1.34,1.87-3.35c0-2.83,0-3.56,0-5.23,0-1.83-.11-2.14.26-2.14s0.37,0,.37,2,0,27.13,0,28.59a2.4,2.4,0,0,0,2.56,2.6c1.88,0,2.67-1.1,2.67-2.36V313.25c0-1.25,0-1.86.35-1.86s0.27,0.61.27,1.86v13.18a2.73,2.73,0,0,0,2.71,2.48,2.93,2.93,0,0,0,2.41-2.45c0-5,0-27.35,0-28.93,0-.86-0.07-1.94.25-1.94s0.32,0.29.32,1.53v4.83c0,3.3.51,4.17,1.77,4.17,1.88,0,1.72-3.22,1.72-5v-7.53Z" transform="translate(-557.98 -276.6)"/><path class="cls-1" d="M674.78,300.48a22,22,0,0,0-1-3.13,2.66,2.66,0,0,0-2.61-2.09h-6.77a3.24,3.24,0,0,0-3.13,2.09l-1,3.13-2.08,6.25c-0.52,1.56-1.56,3.65,0,4.17s2.6-2.6,3.13-4.17l1-3.13c0.11-.29.32-1.19,0.72-1,0.25,0.1,0,.46-0.2,1-0.4,1.47-3.65,11.46-3.65,11.46h4.17v12.5c0,1,.36,2.1,1.77,2.1a1.85,1.85,0,0,0,1.87-2.1V316.64c0-1,0-1.55.29-1.55s0.23,0.51.23,1.55v10.94a1.91,1.91,0,0,0,1.86,2.07,1.93,1.93,0,0,0,1.79-2.07v-12.5h4.17s-2.83-9.89-3.23-11.49c-0.15-.73-0.36-1-0.1-1.16s0.17,0,.73,1.71l1,3.13c0.36,1.08,1,3.65,2.08,3.65,1.56,0,2.08-1,1-4.17Zm-7.17-5.82a4.41,4.41,0,0,0,4.21-4.05,4.46,4.46,0,0,0-4.11-4.21,4.56,4.56,0,0,0-4.15,4.26A4.22,4.22,0,0,0,667.61,294.67Z" transform="translate(-557.98 -276.6)"/></svg>