<svg id="Layer_1" data-name="Layer 1" xmlns="http://www.w3.org/2000/svg" viewBox="0 0 171.88 60.22"><defs><style>.cls-1{fill:#58595b;fill-rule:evenodd;}</style></defs><title>FamilyIcon</title><path class="cls-1" d="M611.07,283.26a5.32,5.32,0,0,0,5.07-4.88,5.37,5.37,0,0,0-4.95-5.06,5.49,5.49,0,0,0-5,5.13A5.09,5.09,0,0,0,611.07,283.26Zm9.89,7a28,28,0,0,0,0-3.77,3.2,3.2,0,0,0-3.14-2.51h-11.9c-1.25,0-2.07-.09-3,0.76-1.27,1.44-1.14,1.57-1.14,5.58V298c0,2-.34,5.07,1.65,5.07s1.87-1.34,1.87-3.35c0-2.83,0-3.56,0-5.23,0-1.83-.11-2.14.26-2.14s0.37,0,.37,2,0,27.13,0,28.59a2.4,2.4,0,0,0,2.56,2.6c1.88,0,2.67-1.1,2.67-2.36V310c0-1.25,0-1.86.35-1.86s0.27,0.61.27,1.86v13.18a2.73,2.73,0,0,0,2.71,2.48,2.93,2.93,0,0,0,2.41-2.45c0-5,0-27.35,0-28.93,0-.86-0.07-1.94.25-1.94s0.32,0.29.32,1.53v4.83c0,3.3.51,4.17,1.77,4.17,1.88,0,1.72-3.22,1.72-5v-7.53Z" transform="translate(-531.39 -273.31)"/><path class="cls-1" d="M640.32,291.1a26.63,26.63,0,0,0-1.26-3.78,3.22,3.22,0,0,0-3.15-2.52h-8.19a3.92,3.92,0,0,0-3.78,2.52l-1.26,3.78-2.52,7.56c-0.63,1.89-1.89,4.41,0,5s3.15-3.15,3.78-5l1.26-3.78c0.13-.34.38-1.44,0.88-1.26,0.31,0.13,0,.55-0.25,1.26-0.49,1.78-4.41,13.86-4.41,13.86h5v15.11c0,1.26.43,2.54,2.15,2.54a2.24,2.24,0,0,0,2.26-2.54V310.62c0-1.26,0-1.87.35-1.87s0.28,0.61.28,1.87v13.23a2.31,2.31,0,0,0,2.24,2.5,2.33,2.33,0,0,0,2.16-2.5V308.74h5s-3.42-12-3.9-13.89c-0.19-.88-0.43-1.22-0.12-1.41s0.21,0.05.88,2.07l1.26,3.78c0.44,1.3,1.26,4.41,2.52,4.41,1.89,0,2.52-1.26,1.26-5Zm-8.67-7a5.33,5.33,0,0,0,5.09-4.9,5.39,5.39,0,0,0-5-5.08,5.51,5.51,0,0,0-5,5.14A5.11,5.11,0,0,0,631.65,284.07Z" transform="translate(-531.39 -273.31)"/><path class="cls-1" d="M538.83,299.74a4.24,4.24,0,0,0,4-3.9,4.29,4.29,0,0,0-3.95-4,4.38,4.38,0,0,0-4,4.09A4.06,4.06,0,0,0,538.83,299.74Zm7.89,5.59a22.3,22.3,0,0,0,0-3,2.56,2.56,0,0,0-2.5-2h-9.5a3,3,0,0,0-2.4.61c-1,1.15-.91,1.25-0.91,4.45v6.11c0,1.58-.27,4,1.32,4s1.49-1.07,1.49-2.67c0-2.26,0-2.84,0-4.17s-0.08-1.71.21-1.71,0.29,0,.29,1.57,0,21.64,0,22.81a1.91,1.91,0,0,0,2,2.07,1.86,1.86,0,0,0,2.13-1.88V321c0-1,0-1.49.28-1.49s0.22,0.49.22,1.49v10.51a2.18,2.18,0,0,0,2.16,2,2.34,2.34,0,0,0,1.92-2c0-4,0-21.82,0-23.08,0-.68-0.06-1.55.2-1.55s0.25,0.23.25,1.22V312c0,2.63.41,3.33,1.41,3.33,1.5,0,1.37-2.57,1.37-4v-6Z" transform="translate(-531.39 -273.31)"/><path class="cls-1" d="M700.74,297.64a21.25,21.25,0,0,0-1-3,2.57,2.57,0,0,0-2.51-2h-6.53a3.13,3.13,0,0,0-3,2l-1,3-2,6c-0.5,1.51-1.51,3.52,0,4s2.51-2.51,3-4l1-3c0.11-.27.31-1.15,0.7-1s0,0.44-.2,1c-0.39,1.42-3.52,11.05-3.52,11.05h4v12.06c0,1,.35,2,1.71,2a1.79,1.79,0,0,0,1.81-2V313.22c0-1,0-1.49.28-1.49s0.22,0.49.22,1.49v10.55a1.84,1.84,0,0,0,1.79,2,1.86,1.86,0,0,0,1.73-2V311.71h4s-2.72-9.54-3.11-11.08c-0.15-.71-0.34-1-0.1-1.12s0.17,0,.7,1.65l1,3c0.35,1,1,3.52,2,3.52,1.51,0,2-1,1-4ZM693.82,292a4.26,4.26,0,0,0,4.06-3.91,4.3,4.3,0,0,0-4-4.06,4.39,4.39,0,0,0-4,4.1A4.07,4.07,0,0,0,693.82,292Z" transform="translate(-531.39 -273.31)"/></svg>