<svg id="Layer_1" data-name="Layer 1" xmlns="http://www.w3.org/2000/svg" viewBox="0 0 404.17 262.17"><defs><style>.cls-1{fill:#58595b;}</style></defs><title>HouseOutline</title><rect class="cls-1" x="359.76" y="101.63" width="6" height="6"/><path class="cls-1" d="M713.05,213.85h-5.21v-6h5.21v6Zm-10.41,0h-5.21v-6h5.21v6Z" transform="translate(-326.47 -106.22)"/><polygon class="cls-1" points="404.17 107.63 391.79 107.63 391.79 106.17 390.6 105.33 391.79 103.67 391.79 101.63 393.24 101.63 394.08 100.44 404.17 107.63"/><path class="cls-1" d="M712.36,208.19l-4.72-3.36,3.48-4.89,4.72,3.36Zm-9.44-6.72-4.72-3.36,3.48-4.89,4.72,3.36Zm-9.44-6.72-4.72-3.36,3.48-4.89,4.72,3.36ZM684,188l-4.72-3.36,3.48-4.89,4.72,3.36Zm-9.44-6.72-4.72-3.36,3.48-4.89,4.72,3.36Zm-9.44-6.72-4.72-3.36,3.48-4.89,4.72,3.36Zm-9.44-6.72L651,164.5l3.48-4.89,4.72,3.36Zm-9.44-6.72-4.72-3.36,3.48-4.89,4.72,3.36Zm-9.44-6.72-4.72-3.36,3.48-4.89,4.72,3.36Zm-9.44-6.72-4.72-3.36,3.48-4.89,4.72,3.36ZM618,141l-4.72-3.36,3.48-4.89,4.72,3.36Zm-9.44-6.72-4.72-3.36L607.3,126l4.72,3.36Zm-9.44-6.72-4.72-3.36,3.48-4.89,4.72,3.36Zm-9.44-6.72-4.72-3.36,3.48-4.89,4.72,3.36Z" transform="translate(-326.47 -106.22)"/><polygon class="cls-1" points="252.36 7.87 248.87 2.99 253.05 0 257.24 2.98 253.76 7.87 253.06 7.37 252.36 7.87"/><path class="cls-1" d="M458.72,200l-3.49-4.88,5-3.58,3.49,4.88Zm10-7.16L465.24,188l5-3.58,3.49,4.88Zm10-7.16-3.49-4.88,5-3.58,3.49,4.88Zm10-7.16-3.49-4.88,5-3.58,3.49,4.88Zm10-7.16-3.49-4.88,5-3.58,3.49,4.88Zm10-7.16-3.49-4.88,5-3.58,3.49,4.88Zm10-7.16-3.49-4.88,5-3.58,3.49,4.88Zm10-7.16L525.29,145l5-3.58,3.49,4.88Zm10-7.16-3.49-4.88,5-3.58,3.49,4.88Zm10-7.16-3.49-4.88,5-3.58,3.49,4.88Zm10-7.16-3.49-4.88,5-3.58,3.49,4.88Zm10-7.16-3.49-4.88,5-3.58,3.49,4.88Z" transform="translate(-326.47 -106.22)"/><polygon class="cls-1" points="122 100.8 119.07 95.85 123.75 92.5 127.24 97.38 127.04 97.52 127.17 97.74 122 100.8"/><polygon class="cls-1" points="127.41 109.92 124.28 104.63 126.8 103.14 129.24 101.53 129.32 101.65 129.44 101.58 130.93 104.09 132.54 106.54 127.41 109.92"/><rect class="cls-1" x="460.27" y="204.07" width="3.86" height="6" transform="translate(-364.15 182.3) rotate(-33.39)"/><polygon class="cls-1" points="142.2 100.17 141.44 99.02 140.06 99.02 140.06 96.92 138.9 95.17 146.06 90.45 146.06 99.02 143.96 99.02 142.2 100.17"/><rect class="cls-1" x="140.05" y="103.75" width="6" height="4.73"/><polygon class="cls-1" points="140.06 119.21 140.04 113.21 146.06 113.2 146.06 119.19 140.06 119.21"/><path class="cls-1" d="M338.36,225.87l0-6,5.83,0,0,6Zm11.65,0,0-6,5.83,0,0,6Zm11.65,0,0-6,5.83,0,0,6Zm11.65,0,0-6,5.83,0,0,6Zm11.65,0,0-6,5.83,0,0,6Zm11.65,0,0-6,5.83,0,0,6Zm11.65,0,0-6,5.83,0,0,6Zm11.65,0,0-6,5.83,0,0,6Zm11.65,0,0-6,5.83,0,0,6Zm11.65,0,0-6,5.83,0,0,6Zm11.65,0,0-6,5.83,0,0,6Z" transform="translate(-326.47 -106.22)"/><polygon class="cls-1" points="0.11 119.74 0 113.69 6.04 113.67 6.11 119.63 3.12 119.69 0.11 119.74"/><path class="cls-1" d="M327.37,269.51l-0.1-5.45,6-.11,0.1,5.45Zm-0.2-10.89-0.1-5.44,6-.11,0.1,5.44ZM327,247.74l-0.1-5.45,6-.11,0.1,5.45Zm-0.2-10.89-0.1-5.44,6-.11,0.1,5.44Z" transform="translate(-326.47 -106.22)"/><polygon class="cls-1" points="1.11 174.99 1 168.74 3.87 168.69 6.74 168.4 6.76 168.63 7 168.63 7.05 171.51 7.34 174.37 1.11 174.99"/><polygon class="cls-1" points="11.37 173.97 11.33 173.63 10.99 173.62 11.05 170.8 10.77 168 17.13 167.36 16.99 173.75 14.16 173.69 11.37 173.97"/><path class="cls-1" d="M341.74,356.05l-6-.14,0.14-6.34,6,0.14ZM342,343.37l-6-.14,0.14-6.34,6,0.14Zm0.29-12.68-6-.14,0.14-6.34,6,0.14ZM342.6,318l-6-.14,0.14-6.34,6,0.14Zm0.29-12.68-6-.14,0.14-6.34,6,0.14Zm0.29-12.68-6-.14,0.14-6.34,6,0.14Z" transform="translate(-326.47 -106.22)"/><polygon class="cls-1" points="8.98 262.17 9.12 256.04 12.05 256.11 15 256.05 15 256.17 15.12 256.18 15.05 259.12 15.11 262.05 8.98 262.17"/><path class="cls-1" d="M347.63,368.15l-0.12-6,6-.12,0.12,6Zm12.09-.23-0.12-6,6-.12,0.12,6Zm12.09-.23-0.12-6,6-.12,0.12,6Zm12.09-.23-0.12-6,6-.12,0.12,6Zm12.09-.23-0.12-6,6-.12,0.12,6ZM408.1,367L408,361l6-.12,0.12,6Zm12.09-.23-0.12-6,6-.12,0.12,6Zm12.09-.23-0.12-6,6-.12,0.12,6Zm12.09-.23-0.12-6,6-.12,0.12,6Zm12.09-.23-0.12-6,6.1-.1v6h-0.84Zm223.71-.1h-6v-6h6v6Zm-12.1,0h-6v-6h6v6Zm-12.1,0h-6v-6h6v6Zm-12.1,0h-6v-6h6v6Zm-12.1,0h-6v-6h6v6Zm-12.1,0h-6v-6h6v6Zm-12.1,0h-6v-6h6v6Zm-12.1,0h-6v-6h6v6Zm-12.1,0h-6v-6h6v6Zm-12.1,0h-6v-6h6v6Zm-12.1,0h-6v-6h6v6Zm-12.1,0h-6v-6h6v6Zm-12.1,0h-6v-6h6v6Zm-12.1,0h-6v-6h6v6Zm-12.1,0h-6v-6h6v6Zm-12.1,0h-6v-6h6v6Zm-12.1,0h-6v-6h6v6Zm-12.1,0h-6v-6h6v6Z" transform="translate(-326.47 -106.22)"/><rect class="cls-1" x="359.76" y="253.73" width="6" height="6"/><path class="cls-1" d="M692.24,354.11h-6v-5.84h6v5.84Zm0-11.69h-6v-5.84h6v5.84Zm0-11.69h-6v-5.84h6v5.84Zm0-11.69h-6V313.2h6V319Zm0-11.69h-6v-5.84h6v5.84Zm0-11.69h-6v-5.84h6v5.84Zm0-11.69h-6v-5.84h6V284Zm0-11.69h-6v-5.84h6v5.84Zm0-11.69h-6v-5.84h6v5.84Zm0-11.69h-6v-5.84h6v5.84Zm0-11.69h-6v-5.84h6v5.84Zm0-11.69h-6v-5.84h6v5.84Z" transform="translate(-326.47 -106.22)"/></svg>