<svg id="Layer_1" data-name="Layer 1" xmlns="http://www.w3.org/2000/svg" xmlns:xlink="http://www.w3.org/1999/xlink" viewBox="0 0 1015.46 301.42"><defs><style>.cls-1,.cls-18{fill:none;}.cls-2{fill:#a7cf3a;}.cls-3{clip-path:url(#clip-path);}.cls-4{fill:#9b8579;}.cls-5{fill:#d2de29;}.cls-6{fill:#33515b;}.cls-7{fill:#03293c;}.cls-8{fill:#f9f5cf;}.cls-9{fill:#6b8a24;}.cls-10{fill:#c7b570;}.cls-11{fill:#d1d3d4;}.cls-12{fill:#143747;}.cls-13{fill:#d3ecfb;}.cls-14{fill:#414042;}.cls-15{fill:#fff;}.cls-16{opacity:0.8;}.cls-17{clip-path:url(#clip-path-4);}.cls-18{stroke:#03293c;stroke-miterlimit:10;stroke-width:3px;}</style><clipPath id="clip-path" transform="translate(-94.12 -49.2)"><rect class="cls-1" x="125.19" y="49.2" width="920.54" height="299.48"/></clipPath><clipPath id="clip-path-4" transform="translate(-94.12 -49.2)"><rect class="cls-1" x="697.33" y="224.38" width="53.75" height="75"/></clipPath></defs><title>House</title><rect class="cls-2" y="250.55" width="1015.46" height="50.87"/><g id="Artwork_2" data-name="Artwork 2"><g class="cls-3"><g class="cls-3"><rect class="cls-2" x="42.18" y="226.93" width="2.52" height="25.25"/><rect class="cls-2" x="63.56" y="226.93" width="2.51" height="25.25"/><rect class="cls-2" x="110.09" y="226.93" width="2.51" height="25.25"/><g class="cls-3"><path class="cls-2" d="M210.21,251.22c0-1.61-1.17-11.13-12.17-9.13-0.51-.27-3.92-6.29-11.67-6.71-2.73.21-13.6-.21-14.7,14.22-2.79,1.35-8.79,5.54-9.63,14.77,0.25,1.88-1,12.88,11.41,13.42h35.24s11.81-1.19,11.41-13.42c0-3.22-2-9.66-9.89-13.15" transform="translate(-94.12 -49.2)"/><path class="cls-2" d="M244.52,254c0-1.45-1.14-10-11.8-8.23-0.49-.24-3.81-5.67-11.32-6.05-2.65.19-13.2-.19-14.26,12.83a16.1,16.1,0,0,0-9.34,13.31c0.24,1.69-1,11.62,11.06,12.1H243s11.46-1.07,11.07-12.1c0-2.91-2-8.71-9.59-11.86" transform="translate(-94.12 -49.2)"/><path class="cls-2" d="M179.49,278.41c0,1.09,1.79,7.54,18.62,6.18,0.78,0.18,6,4.26,17.85,4.54,4.18-.14,20.82.14,22.5-9.64,4.27-.91,13.44-3.75,14.74-10-0.38-1.27,1.55-8.73-17.45-9.09H181.82s-18.07.81-17.46,9.09c0,2.18,3.1,6.55,15.13,8.91" transform="translate(-94.12 -49.2)"/><path class="cls-2" d="M165.83,259.71c0-1-.61-6.57-6.36-5.39-0.26-.16-2.05-3.71-6.1-4-1.43.12-7.11-.12-7.68,8.4-1.46.79-4.59,3.27-5,8.72,0.13,1.11-.53,7.6,6,7.92H165s6.17-.7,6-7.92a9,9,0,0,0-5.17-7.76" transform="translate(-94.12 -49.2)"/><path class="cls-2" d="M183.77,261.36c0-.86-0.59-5.92-6.17-4.86-0.26-.14-2-3.35-5.91-3.57-1.39.11-6.9-.11-7.45,7.57a9.43,9.43,0,0,0-4.88,7.86c0.13,1-.52,6.86,5.78,7.14H183a6.61,6.61,0,0,0,5.78-7.14,8.12,8.12,0,0,0-5-7" transform="translate(-94.12 -49.2)"/><path class="cls-2" d="M173.36,247.37a3.64,3.64,0,0,0-4.63-3.65,6.08,6.08,0,0,0-4.44-2.68c-1,.08-5.18-0.08-5.6,5.69a7.09,7.09,0,0,0-3.67,5.91c0.1,0.75-.39,5.15,4.34,5.37h13.42a5,5,0,0,0,4.35-5.37,6.1,6.1,0,0,0-3.77-5.26" transform="translate(-94.12 -49.2)"/><path class="cls-2" d="M149.78,275.76c0,0.65.94,4.45,9.73,3.65a17,17,0,0,0,9.33,2.68c2.19-.08,10.88.08,11.76-5.69,2.23-.54,7-2.22,7.7-5.91-0.2-.75.81-5.15-9.12-5.37H151s-9.44.48-9.12,5.37c0,1.29,1.62,3.86,7.91,5.26" transform="translate(-94.12 -49.2)"/><path class="cls-2" d="M137.62,270.15c0-.82.33-5.64,3.44-4.63,0.14-.13,1.11-3.19,3.3-3.4,0.77,0.11,3.85-.11,4.16,7.21,0.79,0.68,2.49,2.81,2.73,7.49-0.07,1,.29,6.53-3.23,6.8H138s-3.34-.6-3.23-6.8c0-1.64.58-4.9,2.8-6.67" transform="translate(-94.12 -49.2)"/><path class="cls-2" d="M127.91,271.57c0-.74.32-5.09,3.34-4.17,0.14-.12,1.08-2.88,3.2-3.07,0.75,0.1,3.74-.1,4,6.5,0.77,0.62,2.41,2.54,2.64,6.75-0.07.86,0.28,5.89-3.13,6.13h-9.68s-3.24-.54-3.13-6.13c0-1.48.56-4.42,2.71-6" transform="translate(-94.12 -49.2)"/><path class="cls-2" d="M133.54,259.55c0-.55.24-3.82,2.51-3.14,0.1-.09.81-2.16,2.41-2.3,0.56,0.07,2.81-.07,3,4.89,0.57,0.46,1.81,1.9,2,5.07-0.05.64,0.21,4.43-2.35,4.61h-7.27s-2.44-.41-2.35-4.61a5.89,5.89,0,0,1,2-4.52" transform="translate(-94.12 -49.2)"/><path class="cls-2" d="M146.31,283.94c0,0.55-.51,3.82-5.27,3.14a7.28,7.28,0,0,1-5.05,2.3c-1.18-.07-5.89.07-6.37-4.89a6.35,6.35,0,0,1-4.17-5.07c0.11-.64-0.44-4.43,4.94-4.61h15.26s5.11,0.41,4.94,4.61c0,1.11-.88,3.32-4.28,4.52" transform="translate(-94.12 -49.2)"/><rect class="cls-4" x="833.33" y="207.39" width="2.53" height="46.08"/><rect class="cls-4" x="854.79" y="207.39" width="2.53" height="46.08"/><rect class="cls-4" x="901.51" y="207.39" width="2.53" height="46.08"/><path class="cls-2" d="M1001.64,211.13c0-2.94-1.18-20.31-12.22-16.66-0.51-.49-3.94-11.48-11.71-12.24-2.74.38-13.66-.38-14.76,26-2.8,2.45-8.82,10.12-9.67,26.95,0.25,3.43-1,23.51,11.45,24.48h35.38s11.86-2.17,11.45-24.48c0-5.88-2-17.63-9.93-24" transform="translate(-94.12 -49.2)"/><path class="cls-2" d="M1036.09,216.25c0-2.65-1.14-18.31-11.85-15-0.49-.44-3.82-10.35-11.36-11-2.66.34-13.25-.35-14.32,23.41-2.72,2.21-8.55,9.12-9.38,24.3,0.25,3.09-1,21.2,11.11,22.08h34.32s11.5-2,11.11-22.08c0-5.31-2-15.9-9.63-21.65" transform="translate(-94.12 -49.2)"/><path class="cls-2" d="M1016.1,173c0-2-.86-13.76-8.9-11.28-0.37-.33-2.87-7.78-8.53-8.29-2,.26-10-0.26-10.76,17.59-2,1.66-6.43,6.85-7,18.26,0.18,2.32-.74,15.93,8.35,16.59H1015s8.64-1.47,8.35-16.59c0-4-1.48-11.95-7.23-16.26" transform="translate(-94.12 -49.2)"/><path class="cls-2" d="M970.81,260.76c0,2,1.8,13.76,18.69,11.29,0.78,0.33,6,7.78,17.92,8.29,4.2-.26,20.9.26,22.59-17.59,4.29-1.66,13.49-6.85,14.8-18.26-0.39-2.32,1.56-15.93-17.52-16.59H973.14S955,229.38,955.62,244.5c0,4,3.12,11.95,15.19,16.26" transform="translate(-94.12 -49.2)"/><path class="cls-5" d="M957.09,226.62c0-1.74-.62-12-6.39-9.83-0.27-.29-2.06-6.78-6.12-7.23-1.43.23-7.14-.23-7.71,15.32-1.46,1.45-4.61,6-5.05,15.91,0.13,2-.53,13.88,6,14.45H956.3s6.2-1.28,6-14.45c0-3.47-1.07-10.41-5.19-14.17" transform="translate(-94.12 -49.2)"/><path class="cls-5" d="M975.1,229.65c0-1.57-.6-10.81-6.19-8.87-0.26-.26-2-6.11-5.94-6.52-1.39.2-6.92-.2-7.48,13.82-1.42,1.31-4.47,5.38-4.9,14.34,0.13,1.82-.52,12.51,5.8,13h17.94s6-1.15,5.81-13c0-3.13-1-9.39-5-12.78" transform="translate(-94.12 -49.2)"/><path class="cls-5" d="M964.65,204.12c0-1.18-.45-8.12-4.65-6.66-0.19-.19-1.5-4.59-4.46-4.9-1,.15-5.2-0.15-5.62,10.38-1.07,1-3.36,4-3.68,10.78,0.1,1.37-.39,9.4,4.36,9.79h13.48s4.52-.87,4.36-9.79c0-2.35-.77-7.05-3.78-9.6" transform="translate(-94.12 -49.2)"/><path class="cls-5" d="M941,255.92c0,1.18.94,8.12,9.77,6.66,0.41,0.19,3.15,4.59,9.36,4.9,2.19-.15,10.92.15,11.8-10.38a13.07,13.07,0,0,0,7.73-10.78c-0.2-1.37.82-9.4-9.16-9.79H942.2s-9.48.87-9.16,9.79c0,2.35,1.63,7.05,7.94,9.6" transform="translate(-94.12 -49.2)"/><path class="cls-2" d="M928.76,245.68c0-1.49.33-10.3,3.46-8.45,0.14-.25,1.12-5.82,3.31-6.21,0.78,0.19,3.87-.19,4.18,13.16,0.79,1.24,2.5,5.13,2.74,13.66-0.07,1.74.29,11.92-3.24,12.41h-10s-3.36-1.1-3.24-12.41c0-3,.58-8.94,2.81-12.17" transform="translate(-94.12 -49.2)"/><path class="cls-2" d="M919,248.28c0-1.34.32-9.29,3.35-7.62,0.14-.22,1.08-5.25,3.22-5.6,0.75,0.17,3.75-.18,4.05,11.87,0.77,1.12,2.42,4.63,2.65,12.32-0.07,1.57.28,10.75-3.14,11.19h-9.71s-3.26-1-3.14-11.19c0-2.69.56-8.07,2.73-11" transform="translate(-94.12 -49.2)"/><path class="cls-2" d="M924.67,226.35c0-1,.24-7,2.52-5.72,0.11-.17.81-3.94,2.42-4.21,0.57,0.13,2.82-.13,3,8.92,0.58,0.84,1.82,3.48,2,9.26-0.05,1.18.21,8.08-2.36,8.41H925s-2.45-.75-2.36-8.41c0-2,.42-6.06,2-8.25" transform="translate(-94.12 -49.2)"/><path class="cls-2" d="M937.49,270.85c0,1-.51,7-5.29,5.72-0.22.17-1.71,3.94-5.07,4.21-1.19-.13-5.91.13-6.39-8.92-1.21-.84-3.82-3.48-4.19-9.26,0.11-1.18-.44-8.08,5-8.41h15.32s5.14,0.75,5,8.41a10.15,10.15,0,0,1-4.3,8.25" transform="translate(-94.12 -49.2)"/><rect class="cls-4" x="409.21" y="204.32" width="2.94" height="49.15"/><rect class="cls-4" x="384.25" y="204.32" width="2.94" height="49.15"/><rect class="cls-4" x="329.93" y="204.32" width="2.94" height="49.15"/><path class="cls-2" d="M471.78,221.56c0-1.85.72-12.79,7.42-10.49,0.31-.31,2.39-7.23,7.12-7.71,1.67,0.24,8.3-.24,9,16.34,1.7,1.54,5.36,6.37,5.88,17-0.15,2.16.62,14.8-7,15.41h-21.5s-7.21-1.37-7-15.41c0-3.7,1.24-11.1,6-15.11" transform="translate(-94.12 -49.2)"/><path class="cls-2" d="M450.85,224.78c0-1.67.69-11.53,7.2-9.46,0.3-.28,2.32-6.52,6.9-7,1.62,0.22,8.05-.22,8.7,14.74,1.65,1.39,5.2,5.74,5.7,15.3-0.15,1.94.6,13.35-6.75,13.9H451.74s-7-1.23-6.75-13.9c0-3.34,1.2-10,5.85-13.63" transform="translate(-94.12 -49.2)"/><path class="cls-2" d="M463,197.55c0-1.25.52-8.66,5.41-7.1,0.23-.21,1.74-4.9,5.19-5.22,1.22,0.16,6-.16,6.54,11.07,1.24,1,3.91,4.32,4.28,11.49-0.11,1.46.45,10-5.07,10.44H463.67s-5.25-.93-5.07-10.44c0-2.51.9-7.52,4.4-10.24" transform="translate(-94.12 -49.2)"/><path class="cls-2" d="M490.52,252.81c0,1.26-1.1,8.66-11.36,7.11-0.47.21-3.66,4.9-10.89,5.22-2.55-.16-12.7.16-13.73-11.07-2.61-1-8.2-4.32-9-11.49,0.24-1.46-.95-10,10.65-10.44h32.9s11,0.93,10.65,10.44c0,2.51-1.89,7.52-9.23,10.24" transform="translate(-94.12 -49.2)"/><path class="cls-5" d="M420,205c0-3.14,1.37-21.66,14.21-17.76,0.59-.52,4.58-12.25,13.62-13.06,3.19,0.41,15.88-.41,17.17,27.68,3.26,2.62,10.26,10.79,11.25,28.74-0.29,3.65,1.18,25.07-13.32,26.11H421.75s-13.79-2.31-13.32-26.11c0-6.27,2.37-18.81,11.55-25.6" transform="translate(-94.12 -49.2)"/><path class="cls-5" d="M379.92,210.49c0-2.83,1.33-19.53,13.78-16,0.57-.47,4.44-11,13.21-11.77,3.1,0.37,15.4-.37,16.65,25,3.16,2.36,9.95,9.73,10.91,25.92-0.29,3.29,1.15,22.61-12.92,23.55H381.64s-13.37-2.09-12.92-23.55c0-5.66,2.3-17,11.2-23.09" transform="translate(-94.12 -49.2)"/><path class="cls-5" d="M403.17,164.36c0-2.13,1-14.68,10.35-12,0.43-.35,3.34-8.3,9.92-8.85,2.33,0.28,11.58-.28,12.51,18.76,2.37,1.77,7.47,7.31,8.2,19.47-0.22,2.48.86,17-9.71,17.69h-30s-10-1.57-9.71-17.69c0-4.25,1.73-12.74,8.41-17.35" transform="translate(-94.12 -49.2)"/><path class="cls-5" d="M455.83,258c0,2.13-2.1,14.68-21.74,12-0.91.35-7,8.3-20.84,8.85-4.88-.28-24.3.28-26.26-18.76-5-1.77-15.69-7.31-17.21-19.47,0.45-2.48-1.81-17,20.37-17.69h63s21.1,1.57,20.38,17.69c0,4.25-3.62,12.75-17.66,17.35" transform="translate(-94.12 -49.2)"/><path class="cls-2" d="M504.72,241.89c0-1.59-.39-11-4-9-0.17-.26-1.3-6.21-3.85-6.62-0.9.21-4.5-.21-4.86,14-0.92,1.33-2.9,5.47-3.18,14.57,0.08,1.85-.33,12.71,3.77,13.24h11.64s3.9-1.17,3.77-13.24c0-3.18-.67-9.54-3.27-13" transform="translate(-94.12 -49.2)"/><path class="cls-2" d="M516.06,244.65c0-1.43-.38-9.9-3.9-8.12-0.16-.24-1.26-5.6-3.74-6-0.88.19-4.36-.19-4.71,12.66-0.89,1.2-2.82,4.93-3.09,13.14,0.08,1.67-.33,11.47,3.65,11.94h11.29s3.79-1.06,3.66-11.94c0-2.87-.65-8.6-3.17-11.71" transform="translate(-94.12 -49.2)"/><path class="cls-2" d="M509.48,221.26c0-1.08-.28-7.44-2.93-6.1-0.12-.18-0.94-4.21-2.81-4.49-0.66.14-3.27-.14-3.54,9.51-0.67.9-2.11,3.71-2.32,9.87,0.06,1.25-.24,8.61,2.75,9h8.49s2.84-.8,2.75-9c0-2.16-.49-6.46-2.38-8.8" transform="translate(-94.12 -49.2)"/><path class="cls-2" d="M494.57,268.73c0,1.08.59,7.44,6.15,6.1,0.26,0.18,2,4.21,5.9,4.49,1.38-.14,6.88.14,7.43-9.51,1.41-.9,4.44-3.71,4.87-9.87-0.13-1.25.51-8.61-5.77-9H495.34s-6,.79-5.77,9a10.54,10.54,0,0,0,5,8.8" transform="translate(-94.12 -49.2)"/><rect class="cls-6" x="341.63" y="219.18" width="468.5" height="3.5"/><rect class="cls-6" x="341.63" y="235.18" width="468.5" height="3.5"/><polygon class="cls-7" points="344.63 249.68 341.3 249.68 341.3 210.82 342.97 208.35 344.63 210.82 344.63 249.68"/><polygon class="cls-7" points="351.3 249.68 347.97 249.68 347.97 210.82 349.63 208.35 351.3 210.82 351.3 249.68"/><polygon class="cls-7" points="357.97 249.68 354.63 249.68 354.63 210.82 356.3 208.35 357.97 210.82 357.97 249.68"/><polygon class="cls-7" points="364.63 249.68 361.3 249.68 361.3 210.82 362.97 208.35 364.63 210.82 364.63 249.68"/><polygon class="cls-7" points="371.3 249.68 367.97 249.68 367.97 210.82 369.63 208.35 371.3 210.82 371.3 249.68"/><polygon class="cls-7" points="377.97 249.68 374.63 249.68 374.63 210.82 376.3 208.35 377.97 210.82 377.97 249.68"/><polygon class="cls-7" points="384.63 249.68 381.3 249.68 381.3 210.82 382.97 208.35 384.63 210.82 384.63 249.68"/><polygon class="cls-7" points="391.3 249.68 387.97 249.68 387.97 210.82 389.63 208.35 391.3 210.82 391.3 249.68"/><polygon class="cls-7" points="397.97 249.68 394.63 249.68 394.63 210.82 396.3 208.35 397.97 210.82 397.97 249.68"/><polygon class="cls-7" points="404.63 249.68 401.3 249.68 401.3 210.82 402.97 208.35 404.63 210.82 404.63 249.68"/><polygon class="cls-7" points="411.3 249.68 407.97 249.68 407.97 210.82 409.63 208.35 411.3 210.82 411.3 249.68"/><polygon class="cls-7" points="417.97 249.68 414.63 249.68 414.63 210.82 416.3 208.35 417.97 210.82 417.97 249.68"/><polygon class="cls-7" points="424.63 249.68 421.3 249.68 421.3 210.82 422.97 208.35 424.63 210.82 424.63 249.68"/><polygon class="cls-7" points="431.3 249.68 427.97 249.68 427.97 210.82 429.63 208.35 431.3 210.82 431.3 249.68"/><polygon class="cls-7" points="437.97 249.68 434.63 249.68 434.63 210.82 436.3 208.35 437.97 210.82 437.97 249.68"/><polygon class="cls-7" points="444.63 249.68 441.3 249.68 441.3 210.82 442.97 208.35 444.63 210.82 444.63 249.68"/><polygon class="cls-7" points="451.3 249.68 447.97 249.68 447.97 210.82 449.63 208.35 451.3 210.82 451.3 249.68"/><polygon class="cls-7" points="457.97 249.68 454.63 249.68 454.63 210.82 456.3 208.35 457.97 210.82 457.97 249.68"/><polygon class="cls-7" points="464.63 249.68 461.3 249.68 461.3 210.82 462.97 208.35 464.63 210.82 464.63 249.68"/><polygon class="cls-7" points="471.3 249.68 467.97 249.68 467.97 210.82 469.63 208.35 471.3 210.82 471.3 249.68"/><polygon class="cls-7" points="477.97 249.68 474.63 249.68 474.63 210.82 476.3 208.35 477.97 210.82 477.97 249.68"/><polygon class="cls-7" points="484.63 249.68 481.3 249.68 481.3 210.82 482.97 208.35 484.63 210.82 484.63 249.68"/><polygon class="cls-7" points="491.3 249.68 487.97 249.68 487.97 210.82 489.63 208.35 491.3 210.82 491.3 249.68"/><polygon class="cls-7" points="497.97 249.68 494.63 249.68 494.63 210.82 496.3 208.35 497.97 210.82 497.97 249.68"/><polygon class="cls-7" points="504.63 249.68 501.3 249.68 501.3 210.82 502.97 208.35 504.63 210.82 504.63 249.68"/><polygon class="cls-7" points="511.3 249.68 507.97 249.68 507.97 210.82 509.63 208.35 511.3 210.82 511.3 249.68"/><polygon class="cls-7" points="517.97 249.68 514.63 249.68 514.63 210.82 516.3 208.35 517.97 210.82 517.97 249.68"/><polygon class="cls-7" points="524.63 249.68 521.3 249.68 521.3 210.82 522.97 208.35 524.63 210.82 524.63 249.68"/><polygon class="cls-7" points="531.3 249.68 527.97 249.68 527.97 210.82 529.63 208.35 531.3 210.82 531.3 249.68"/><polygon class="cls-7" points="537.97 249.68 534.63 249.68 534.63 210.82 536.3 208.35 537.97 210.82 537.97 249.68"/><polygon class="cls-7" points="544.63 249.68 541.3 249.68 541.3 210.82 542.97 208.35 544.63 210.82 544.63 249.68"/><polygon class="cls-7" points="551.3 249.68 547.97 249.68 547.97 210.82 549.63 208.35 551.3 210.82 551.3 249.68"/><polygon class="cls-7" points="557.97 249.68 554.63 249.68 554.63 210.82 556.3 208.35 557.97 210.82 557.97 249.68"/><polygon class="cls-7" points="564.63 249.68 561.3 249.68 561.3 210.82 562.97 208.35 564.63 210.82 564.63 249.68"/><polygon class="cls-7" points="571.3 249.68 567.97 249.68 567.97 210.82 569.63 208.35 571.3 210.82 571.3 249.68"/><polygon class="cls-7" points="577.97 249.68 574.63 249.68 574.63 210.82 576.3 208.35 577.97 210.82 577.97 249.68"/><polygon class="cls-7" points="584.63 249.68 581.3 249.68 581.3 210.82 582.97 208.35 584.63 210.82 584.63 249.68"/><polygon class="cls-7" points="591.3 249.68 587.97 249.68 587.97 210.82 589.63 208.35 591.3 210.82 591.3 249.68"/><polygon class="cls-7" points="597.97 249.68 594.63 249.68 594.63 210.82 596.3 208.35 597.97 210.82 597.97 249.68"/><polygon class="cls-7" points="604.63 249.68 601.3 249.68 601.3 210.82 602.97 208.35 604.63 210.82 604.63 249.68"/><polygon class="cls-7" points="611.3 249.68 607.97 249.68 607.97 210.82 609.63 208.35 611.3 210.82 611.3 249.68"/><polygon class="cls-7" points="617.97 249.68 614.63 249.68 614.63 210.82 616.3 208.35 617.97 210.82 617.97 249.68"/><polygon class="cls-7" points="624.63 249.68 621.3 249.68 621.3 210.82 622.97 208.35 624.63 210.82 624.63 249.68"/><polygon class="cls-7" points="631.3 249.68 627.97 249.68 627.97 210.82 629.63 208.35 631.3 210.82 631.3 249.68"/><polygon class="cls-7" points="637.97 249.68 634.63 249.68 634.63 210.82 636.3 208.35 637.97 210.82 637.97 249.68"/><polygon class="cls-7" points="644.63 249.68 641.3 249.68 641.3 210.82 642.97 208.35 644.63 210.82 644.63 249.68"/><polygon class="cls-7" points="651.3 249.68 647.97 249.68 647.97 210.82 649.63 208.35 651.3 210.82 651.3 249.68"/><polygon class="cls-7" points="657.97 249.68 654.63 249.68 654.63 210.82 656.3 208.35 657.97 210.82 657.97 249.68"/><polygon class="cls-7" points="664.63 249.68 661.3 249.68 661.3 210.82 662.97 208.35 664.63 210.82 664.63 249.68"/><polygon class="cls-7" points="671.3 249.68 667.97 249.68 667.97 210.82 669.63 208.35 671.3 210.82 671.3 249.68"/><polygon class="cls-7" points="677.97 249.68 674.63 249.68 674.63 210.82 676.3 208.35 677.97 210.82 677.97 249.68"/><polygon class="cls-7" points="684.63 249.68 681.3 249.68 681.3 210.82 682.97 208.35 684.63 210.82 684.63 249.68"/><polygon class="cls-7" points="691.3 249.68 687.97 249.68 687.97 210.82 689.63 208.35 691.3 210.82 691.3 249.68"/><polygon class="cls-7" points="697.97 249.68 694.63 249.68 694.63 210.82 696.3 208.35 697.97 210.82 697.97 249.68"/><polygon class="cls-7" points="704.63 249.68 701.3 249.68 701.3 210.82 702.97 208.35 704.63 210.82 704.63 249.68"/><polygon class="cls-7" points="711.3 249.68 707.97 249.68 707.97 210.82 709.63 208.35 711.3 210.82 711.3 249.68"/><polygon class="cls-7" points="717.97 249.68 714.63 249.68 714.63 210.82 716.3 208.35 717.97 210.82 717.97 249.68"/><polygon class="cls-7" points="724.63 249.68 721.3 249.68 721.3 210.82 722.97 208.35 724.63 210.82 724.63 249.68"/><polygon class="cls-7" points="731.3 249.68 727.97 249.68 727.97 210.82 729.63 208.35 731.3 210.82 731.3 249.68"/><polygon class="cls-7" points="737.97 249.68 734.63 249.68 734.63 210.82 736.3 208.35 737.97 210.82 737.97 249.68"/><polygon class="cls-7" points="744.63 249.68 741.3 249.68 741.3 210.82 742.97 208.35 744.63 210.82 744.63 249.68"/><polygon class="cls-7" points="751.3 249.68 747.97 249.68 747.97 210.82 749.63 208.35 751.3 210.82 751.3 249.68"/><polygon class="cls-7" points="757.97 249.68 754.63 249.68 754.63 210.82 756.3 208.35 757.97 210.82 757.97 249.68"/><polygon class="cls-7" points="764.63 249.68 761.3 249.68 761.3 210.82 762.97 208.35 764.63 210.82 764.63 249.68"/><polygon class="cls-7" points="771.3 249.68 767.97 249.68 767.97 210.82 769.63 208.35 771.3 210.82 771.3 249.68"/><polygon class="cls-7" points="777.97 249.68 774.63 249.68 774.63 210.82 776.3 208.35 777.97 210.82 777.97 249.68"/><polygon class="cls-7" points="784.63 249.68 781.3 249.68 781.3 210.82 782.97 208.35 784.63 210.82 784.63 249.68"/><polygon class="cls-7" points="791.3 249.68 787.97 249.68 787.97 210.82 789.63 208.35 791.3 210.82 791.3 249.68"/><polygon class="cls-7" points="797.97 249.68 794.63 249.68 794.63 210.82 796.3 208.35 797.97 210.82 797.97 249.68"/><polygon class="cls-7" points="804.63 249.68 801.3 249.68 801.3 210.82 802.97 208.35 804.63 210.82 804.63 249.68"/><polygon class="cls-7" points="811.3 249.68 807.97 249.68 807.97 210.82 809.63 208.35 811.3 210.82 811.3 249.68"/><polygon class="cls-8" points="738.02 249.8 520.88 249.8 520.88 81.02 630.64 6.02 738.02 82.02 738.02 249.8"/><path class="cls-9" d="M795.41,286.34c0-.84.7-5.77,7.22-4.73a9.71,9.71,0,0,1,6.92-3.48c1.62,0.11,8.07-.11,8.72,7.37a9.34,9.34,0,0,1,5.71,7.65c-0.15,1,.6,6.68-6.77,7h-20.9s-7-.62-6.77-7c0-1.67,1.2-5,5.87-6.82" transform="translate(-94.12 -49.2)"/><path class="cls-9" d="M775.06,287.8c0-.75.67-5.2,7-4.26a9.59,9.59,0,0,1,6.71-3.13c1.57,0.1,7.83-.1,8.46,6.65a8.58,8.58,0,0,1,5.54,6.9c-0.14.88,0.58,6-6.56,6.27H775.94s-6.79-.56-6.56-6.27c0-1.51,1.17-4.52,5.69-6.15" transform="translate(-94.12 -49.2)"/><path class="cls-9" d="M821.93,290.93c0-.57.51-3.91,5.26-3.2a7.21,7.21,0,0,1,5-2.35c1.18,0.07,5.88-.07,6.35,5a6.45,6.45,0,0,1,4.16,5.18c-0.11.66,0.44,4.52-4.93,4.71H822.58s-5.1-.42-4.93-4.71c0-1.13.88-3.39,4.27-4.62" transform="translate(-94.12 -49.2)"/><rect class="cls-8" x="388.73" y="163.68" width="132.99" height="87"/><polygon class="cls-10" points="629.45 8.33 520.97 82.68 520.97 92.68 629.97 18.02 738.13 93.18 737.63 82.35 629.45 8.33"/><polygon class="cls-7" points="629.45 0 500.63 88.68 504.97 95.35 629.97 9.68 755.63 96.68 760.13 90.18 629.45 0"/><rect class="cls-10" x="388.3" y="163.68" width="133.33" height="8.33"/><polygon class="cls-7" points="521.72 106.55 377.97 108.02 377.66 163.56 521.72 163.56 521.72 106.55"/><path class="cls-11" d="M751.9,299.09s0,49.58-44.71,49.58H429.28c-24.17,0-45.91-49.58-45.91-49.58h52s4.83,13.52,15.71,13.52h233.2c13.29,0,20.39-13.48,20.39-13.48l47.27,0" transform="translate(-94.12 -49.2)"/><rect class="cls-12" x="609.38" y="183.66" width="42.13" height="66.45"/><rect class="cls-6" x="611.79" y="186.46" width="37.19" height="63.28"/><rect class="cls-6" x="623.82" y="195.94" width="12.4" height="16.25"/><rect class="cls-13" x="630.38" y="204.6" width="4.64" height="6.58"/><rect class="cls-13" x="624.74" y="204.6" width="4.64" height="6.58"/><rect class="cls-13" x="630.38" y="197.04" width="4.64" height="6.58"/><rect class="cls-13" x="624.74" y="197.04" width="4.64" height="6.58"/><path class="cls-14" d="M739.45,275a2.55,2.55,0,1,1-2.55-2.55,2.55,2.55,0,0,1,2.55,2.55" transform="translate(-94.12 -49.2)"/><path class="cls-9" d="M455.19,291.07c0-.63.53-4.38,5.48-3.59a7.37,7.37,0,0,1,5.25-2.64c1.23,0.08,6.12-.08,6.62,5.59a7.09,7.09,0,0,1,4.34,5.81c-0.11.74,0.46,5.07-5.13,5.28H455.87s-5.32-.47-5.14-5.28c0-1.27.91-3.8,4.45-5.17" transform="translate(-94.12 -49.2)"/><path class="cls-9" d="M439.75,292.17c0-.57.51-3.95,5.31-3.24a7.28,7.28,0,0,1,5.09-2.38c1.19,0.07,5.94-.07,6.42,5a6.51,6.51,0,0,1,4.21,5.24c-0.11.67,0.44,4.57-5,4.76H440.41s-5.15-.42-5-4.76c0-1.14.89-3.43,4.32-4.67" transform="translate(-94.12 -49.2)"/><path class="cls-9" d="M475.31,294.55c0-.43.38-3,4-2.43a5.47,5.47,0,0,1,3.83-1.79c0.9,0.06,4.46-.06,4.82,3.79a4.89,4.89,0,0,1,3.16,3.93c-0.08.5,0.33,3.43-3.74,3.58H475.81s-3.87-.32-3.74-3.58c0-.86.67-2.58,3.24-3.51" transform="translate(-94.12 -49.2)"/><path class="cls-9" d="M638.15,287c0-.8.67-5.56,7-4.56a9.35,9.35,0,0,1,6.67-3.35c1.56,0.1,7.78-.11,8.4,7.1a9,9,0,0,1,5.51,7.38c-0.14.94,0.58,6.43-6.52,6.7H639s-6.75-.59-6.52-6.7c0-1.61,1.16-4.83,5.65-6.57" transform="translate(-94.12 -49.2)"/><path class="cls-9" d="M618.54,288.43c0-.73.65-5,6.75-4.11a9.25,9.25,0,0,1,6.47-3c1.51,0.1,7.54-.09,8.15,6.41a8.27,8.27,0,0,1,5.34,6.65c-0.14.85,0.56,5.8-6.32,6H619.38s-6.55-.54-6.33-6c0-1.45,1.13-4.35,5.48-5.93" transform="translate(-94.12 -49.2)"/><path class="cls-9" d="M663.71,291.45c0-.55.49-3.77,5.07-3.09a7,7,0,0,1,4.86-2.27c1.14,0.07,5.67-.07,6.13,4.81a6.21,6.21,0,0,1,4,5c-0.1.63,0.42,4.36-4.75,4.54H664.34s-4.92-.4-4.75-4.54c0-1.09.85-3.27,4.12-4.45" transform="translate(-94.12 -49.2)"/><rect class="cls-11" x="404.44" y="250.24" width="100.32" height="14.91"/><rect class="cls-7" x="545.26" y="160.95" width="34.65" height="47.53"/><rect class="cls-13" x="563.86" y="186.28" width="12.97" height="19.25"/><rect class="cls-13" x="548.09" y="186.28" width="12.97" height="19.25"/><rect class="cls-13" x="563.86" y="164.17" width="12.97" height="19.25"/><rect class="cls-13" x="548.09" y="164.17" width="12.97" height="19.25"/><rect class="cls-7" x="528.24" y="160.93" width="17.41" height="47.51"/><rect class="cls-7" x="579.83" y="160.93" width="17.72" height="47.51"/><rect class="cls-6" x="530.35" y="164.62" width="13.73" height="1.1"/><rect class="cls-6" x="530.35" y="166.95" width="13.73" height="1.1"/><rect class="cls-6" x="530.35" y="169.28" width="13.73" height="1.1"/><rect class="cls-6" x="530.35" y="171.61" width="13.73" height="1.11"/><rect class="cls-6" x="530.35" y="173.95" width="13.73" height="1.11"/><rect class="cls-6" x="530.35" y="176.28" width="13.73" height="1.11"/><rect class="cls-6" x="530.35" y="178.61" width="13.73" height="1.11"/><rect class="cls-6" x="530.35" y="180.94" width="13.73" height="1.11"/><rect class="cls-6" x="530.35" y="183.27" width="13.73" height="1.11"/><rect class="cls-6" x="530.35" y="185.61" width="13.73" height="1.11"/><rect class="cls-6" x="530.35" y="187.94" width="13.73" height="1.11"/><rect class="cls-6" x="530.35" y="190.27" width="13.73" height="1.11"/><rect class="cls-6" x="530.35" y="192.6" width="13.73" height="1.11"/><rect class="cls-6" x="530.35" y="194.94" width="13.73" height="1.11"/><rect class="cls-6" x="530.35" y="197.27" width="13.73" height="1.11"/><rect class="cls-6" x="530.35" y="199.6" width="13.73" height="1.11"/><rect class="cls-6" x="530.35" y="201.93" width="13.73" height="1.11"/><rect class="cls-6" x="530.35" y="204.27" width="13.73" height="1.11"/><rect class="cls-6" x="581.47" y="164.62" width="13.73" height="1.1"/><rect class="cls-6" x="581.47" y="166.95" width="13.73" height="1.1"/><rect class="cls-6" x="581.47" y="169.28" width="13.73" height="1.1"/><rect class="cls-6" x="581.47" y="171.61" width="13.73" height="1.11"/><rect class="cls-6" x="581.47" y="173.95" width="13.73" height="1.11"/><rect class="cls-6" x="581.47" y="176.28" width="13.73" height="1.11"/><rect class="cls-6" x="581.47" y="178.61" width="13.73" height="1.11"/><rect class="cls-6" x="581.47" y="180.94" width="13.73" height="1.11"/><rect class="cls-6" x="581.47" y="183.27" width="13.73" height="1.11"/><rect class="cls-6" x="581.47" y="185.61" width="13.73" height="1.11"/><rect class="cls-6" x="581.47" y="187.94" width="13.73" height="1.11"/><rect class="cls-6" x="581.47" y="190.27" width="13.73" height="1.11"/><rect class="cls-6" x="581.47" y="192.6" width="13.73" height="1.11"/><rect class="cls-6" x="581.47" y="194.94" width="13.73" height="1.11"/><rect class="cls-6" x="581.47" y="197.27" width="13.73" height="1.11"/><rect class="cls-6" x="581.47" y="199.6" width="13.73" height="1.11"/><rect class="cls-6" x="581.47" y="201.93" width="13.73" height="1.11"/><rect class="cls-6" x="581.47" y="204.27" width="13.73" height="1.11"/><polygon class="cls-15" points="548.09 198.46 561.05 187.22 561.05 189.56 548.1 200.6 548.09 198.46"/><polygon class="cls-15" points="548.09 202.12 561.05 190.88 561.08 194.47 548.1 205.4 548.09 202.12"/><polygon class="cls-15" points="563.86 198.15 576.83 186.9 576.83 189.25 563.87 200.29 563.86 198.15"/><polygon class="cls-15" points="563.86 201.81 576.83 190.56 576.86 194.16 563.87 205.09 563.86 201.81"/><polygon class="cls-15" points="548.09 176.02 561.05 164.78 561.05 167.12 548.1 178.16 548.09 176.02"/><polygon class="cls-15" points="548.09 179.68 561.05 168.44 561.08 172.03 548.1 182.97 548.09 179.68"/><polygon class="cls-15" points="563.86 176.15 576.83 164.9 576.83 167.25 563.87 178.29 563.86 176.15"/><polygon class="cls-15" points="563.86 179.81 576.83 168.56 576.86 172.16 563.87 183.09 563.86 179.81"/><rect class="cls-7" x="678.84" y="160.95" width="34.65" height="47.53"/><rect class="cls-13" x="697.44" y="186.28" width="12.97" height="19.25"/><rect class="cls-13" x="681.67" y="186.28" width="12.97" height="19.25"/><rect class="cls-13" x="697.44" y="164.17" width="12.97" height="19.25"/><rect class="cls-13" x="681.67" y="164.17" width="12.97" height="19.25"/><rect class="cls-7" x="661.82" y="160.93" width="17.41" height="47.51"/><rect class="cls-7" x="713.41" y="160.93" width="17.72" height="47.51"/><rect class="cls-6" x="663.93" y="164.62" width="13.73" height="1.1"/><rect class="cls-6" x="663.93" y="166.95" width="13.73" height="1.1"/><rect class="cls-6" x="663.93" y="169.28" width="13.73" height="1.1"/><rect class="cls-6" x="663.93" y="171.61" width="13.73" height="1.11"/><rect class="cls-6" x="663.93" y="173.95" width="13.73" height="1.11"/><rect class="cls-6" x="663.93" y="176.28" width="13.73" height="1.11"/><rect class="cls-6" x="663.93" y="178.61" width="13.73" height="1.11"/><rect class="cls-6" x="663.93" y="180.94" width="13.73" height="1.11"/><rect class="cls-6" x="663.93" y="183.27" width="13.73" height="1.11"/><rect class="cls-6" x="663.93" y="185.61" width="13.73" height="1.11"/><rect class="cls-6" x="663.93" y="187.94" width="13.73" height="1.11"/><rect class="cls-6" x="663.93" y="190.27" width="13.73" height="1.11"/><rect class="cls-6" x="663.93" y="192.6" width="13.73" height="1.11"/><rect class="cls-6" x="663.93" y="194.94" width="13.73" height="1.11"/><rect class="cls-6" x="663.93" y="197.27" width="13.73" height="1.11"/><rect class="cls-6" x="663.93" y="199.6" width="13.73" height="1.11"/><rect class="cls-6" x="663.93" y="201.93" width="13.73" height="1.11"/><rect class="cls-6" x="663.93" y="204.27" width="13.73" height="1.11"/><rect class="cls-6" x="715.05" y="164.62" width="13.73" height="1.1"/><rect class="cls-6" x="715.05" y="166.95" width="13.73" height="1.1"/><rect class="cls-6" x="715.05" y="169.28" width="13.73" height="1.1"/><rect class="cls-6" x="715.05" y="171.61" width="13.73" height="1.11"/><rect class="cls-6" x="715.05" y="173.95" width="13.73" height="1.11"/><rect class="cls-6" x="715.05" y="176.28" width="13.73" height="1.11"/><rect class="cls-6" x="715.05" y="178.61" width="13.73" height="1.11"/><rect class="cls-6" x="715.05" y="180.94" width="13.73" height="1.11"/><rect class="cls-6" x="715.05" y="183.27" width="13.73" height="1.11"/><rect class="cls-6" x="715.05" y="185.61" width="13.73" height="1.11"/><rect class="cls-6" x="715.05" y="187.94" width="13.73" height="1.11"/><rect class="cls-6" x="715.05" y="190.27" width="13.73" height="1.11"/><rect class="cls-6" x="715.05" y="192.6" width="13.73" height="1.11"/><rect class="cls-6" x="715.05" y="194.94" width="13.73" height="1.11"/><rect class="cls-6" x="715.05" y="197.27" width="13.73" height="1.11"/><rect class="cls-6" x="715.05" y="199.6" width="13.73" height="1.11"/><rect class="cls-6" x="715.05" y="201.93" width="13.73" height="1.11"/><rect class="cls-6" x="715.05" y="204.27" width="13.73" height="1.11"/><polygon class="cls-15" points="681.67 198.46 694.63 187.22 694.63 189.56 681.68 200.6 681.67 198.46"/><polygon class="cls-15" points="681.67 202.12 694.63 190.88 694.66 194.47 681.68 205.4 681.67 202.12"/><polygon class="cls-15" points="697.44 198.15 710.41 186.9 710.41 189.25 697.45 200.29 697.44 198.15"/><polygon class="cls-15" points="697.44 201.81 710.41 190.56 710.44 194.16 697.45 205.09 697.44 201.81"/><polygon class="cls-15" points="681.67 176.02 694.63 164.78 694.63 167.12 681.68 178.16 681.67 176.02"/><polygon class="cls-15" points="681.67 179.68 694.63 168.44 694.66 172.03 681.68 182.97 681.67 179.68"/><polygon class="cls-15" points="697.44 176.15 710.41 164.9 710.41 167.25 697.45 178.29 697.44 176.15"/><polygon class="cls-15" points="697.44 179.81 710.41 168.56 710.44 172.16 697.45 183.09 697.44 179.81"/><rect class="cls-7" x="613.1" y="88.79" width="34.65" height="47.53"/><rect class="cls-13" x="631.7" y="114.12" width="12.97" height="19.25"/><rect class="cls-13" x="615.92" y="114.12" width="12.97" height="19.25"/><rect class="cls-13" x="631.7" y="92.01" width="12.97" height="19.25"/><rect class="cls-13" x="615.92" y="92.01" width="12.97" height="19.25"/><rect class="cls-7" x="596.07" y="88.78" width="17.41" height="47.51"/><rect class="cls-7" x="647.67" y="88.78" width="17.72" height="47.51"/><rect class="cls-6" x="598.19" y="92.46" width="13.73" height="1.1"/><rect class="cls-6" x="598.19" y="94.79" width="13.73" height="1.1"/><rect class="cls-6" x="598.19" y="97.12" width="13.73" height="1.1"/><rect class="cls-6" x="598.19" y="99.46" width="13.73" height="1.1"/><rect class="cls-6" x="598.19" y="101.79" width="13.73" height="1.1"/><rect class="cls-6" x="598.19" y="104.12" width="13.73" height="1.1"/><rect class="cls-6" x="598.19" y="106.45" width="13.73" height="1.1"/><rect class="cls-6" x="598.19" y="108.79" width="13.73" height="1.1"/><rect class="cls-6" x="598.19" y="111.12" width="13.73" height="1.1"/><rect class="cls-6" x="598.19" y="113.45" width="13.73" height="1.1"/><rect class="cls-6" x="598.19" y="115.78" width="13.73" height="1.1"/><rect class="cls-6" x="598.19" y="118.12" width="13.73" height="1.1"/><rect class="cls-6" x="598.19" y="120.45" width="13.73" height="1.1"/><rect class="cls-6" x="598.19" y="122.78" width="13.73" height="1.1"/><rect class="cls-6" x="598.19" y="125.11" width="13.73" height="1.1"/><rect class="cls-6" x="598.19" y="127.45" width="13.73" height="1.1"/><rect class="cls-6" x="598.19" y="129.78" width="13.73" height="1.1"/><rect class="cls-6" x="598.19" y="132.11" width="13.73" height="1.1"/><rect class="cls-6" x="649.31" y="92.46" width="13.73" height="1.1"/><rect class="cls-6" x="649.31" y="94.79" width="13.73" height="1.1"/><rect class="cls-6" x="649.31" y="97.12" width="13.73" height="1.1"/><rect class="cls-6" x="649.31" y="99.46" width="13.73" height="1.1"/><rect class="cls-6" x="649.31" y="101.79" width="13.73" height="1.1"/><rect class="cls-6" x="649.31" y="104.12" width="13.73" height="1.1"/><rect class="cls-6" x="649.31" y="106.45" width="13.73" height="1.1"/><rect class="cls-6" x="649.31" y="108.79" width="13.73" height="1.1"/><rect class="cls-6" x="649.31" y="111.12" width="13.73" height="1.1"/><rect class="cls-6" x="649.31" y="113.45" width="13.73" height="1.1"/><rect class="cls-6" x="649.31" y="115.78" width="13.73" height="1.1"/><rect class="cls-6" x="649.31" y="118.12" width="13.73" height="1.1"/><rect class="cls-6" x="649.31" y="120.45" width="13.73" height="1.1"/><rect class="cls-6" x="649.31" y="122.78" width="13.73" height="1.1"/><rect class="cls-6" x="649.31" y="125.11" width="13.73" height="1.1"/><rect class="cls-6" x="649.31" y="127.45" width="13.73" height="1.1"/><rect class="cls-6" x="649.31" y="129.78" width="13.73" height="1.1"/><rect class="cls-6" x="649.31" y="132.11" width="13.73" height="1.1"/><polygon class="cls-15" points="615.93 126.3 628.89 115.06 628.89 117.4 615.94 128.44 615.93 126.3"/><polygon class="cls-15" points="615.93 129.96 628.89 118.72 628.92 122.31 615.94 133.25 615.93 129.96"/><polygon class="cls-15" points="631.7 125.99 644.66 114.75 644.66 117.09 631.71 128.13 631.7 125.99"/><polygon class="cls-15" points="631.7 129.65 644.66 118.41 644.69 122 631.71 132.93 631.7 129.65"/><polygon class="cls-15" points="615.93 103.86 628.89 92.62 628.89 94.97 615.94 106.01 615.93 103.86"/><polygon class="cls-15" points="615.93 107.53 628.89 96.28 628.92 99.88 615.94 110.81 615.93 107.53"/><polygon class="cls-15" points="631.7 103.99 644.66 92.75 644.66 95.09 631.71 106.13 631.7 103.99"/><polygon class="cls-15" points="631.7 107.65 644.66 96.41 644.69 100 631.71 110.93 631.7 107.65"/><rect class="cls-7" x="404.45" y="180.45" width="100.84" height="70.01"/><rect class="cls-6" x="409.31" y="189.32" width="90.65" height="1.63"/><rect class="cls-6" x="409.31" y="196.19" width="90.65" height="1.63"/><rect class="cls-6" x="409.31" y="203.06" width="90.65" height="1.63"/><rect class="cls-6" x="409.31" y="209.94" width="90.65" height="1.63"/><rect class="cls-6" x="409.31" y="216.81" width="90.65" height="1.63"/><rect class="cls-6" x="409.31" y="223.69" width="90.65" height="1.63"/><rect class="cls-6" x="409.31" y="230.56" width="90.65" height="1.63"/><rect class="cls-6" x="409.31" y="237.43" width="90.65" height="1.63"/><rect class="cls-6" x="409.31" y="244.31" width="90.65" height="1.63"/><g class="cls-16"><g class="cls-17"><polygon class="cls-12" points="656.97 190.85 615.84 190.85 616.09 250.18 603.22 250.18 603.22 175.18 656.97 175.18 656.97 190.85"/></g></g><rect class="cls-6" x="379.64" y="108.18" width="1" height="55.25"/><rect class="cls-6" x="383.64" y="108.06" width="1" height="55.38"/><rect class="cls-6" x="387.64" y="107.93" width="1" height="55.5"/><rect class="cls-6" x="391.64" y="107.93" width="1" height="55.5"/><rect class="cls-6" x="395.64" y="107.93" width="1" height="55.5"/><rect class="cls-6" x="399.64" y="107.93" width="1" height="55.5"/><rect class="cls-6" x="403.64" y="107.93" width="1" height="55.5"/><rect class="cls-6" x="407.64" y="107.93" width="1" height="55.5"/><rect class="cls-6" x="411.64" y="107.43" width="1" height="56"/><rect class="cls-6" x="415.64" y="107.43" width="1" height="56"/><rect class="cls-6" x="419.64" y="107.43" width="1" height="56"/><rect class="cls-6" x="423.64" y="107.43" width="1" height="56"/><rect class="cls-6" x="427.64" y="107.43" width="1" height="56"/><rect class="cls-6" x="431.64" y="107.43" width="1" height="56"/><rect class="cls-6" x="435.64" y="107.43" width="1" height="56"/><rect class="cls-6" x="439.64" y="107.43" width="1" height="56"/><rect class="cls-6" x="443.64" y="107.43" width="1" height="56"/><rect class="cls-6" x="447.64" y="107.43" width="1" height="56"/><rect class="cls-6" x="451.64" y="107.43" width="1" height="56"/><rect class="cls-6" x="455.64" y="107.43" width="1" height="56"/><rect class="cls-6" x="459.64" y="107.43" width="1" height="56"/><rect class="cls-6" x="463.64" y="107.43" width="1" height="56"/><rect class="cls-6" x="467.64" y="107.43" width="1" height="56"/><rect class="cls-6" x="471.64" y="107.43" width="1" height="56"/><rect class="cls-6" x="475.64" y="107.43" width="1" height="56"/><rect class="cls-6" x="479.64" y="107.43" width="1" height="56"/><rect class="cls-6" x="483.64" y="107.43" width="1" height="56"/><rect class="cls-6" x="487.64" y="107.43" width="1" height="56"/><rect class="cls-6" x="491.64" y="107.43" width="1" height="56"/><rect class="cls-6" x="495.64" y="107.43" width="1" height="56"/><rect class="cls-6" x="499.64" y="107.43" width="1" height="56"/><rect class="cls-6" x="503.64" y="107.43" width="1" height="56"/><rect class="cls-6" x="507.64" y="107.43" width="1" height="56"/><rect class="cls-6" x="511.64" y="107.43" width="1" height="56"/><rect class="cls-6" x="515.64" y="107.43" width="1" height="56"/><rect class="cls-6" x="519.64" y="107.43" width="1" height="56"/><rect class="cls-6" x="377.89" y="163.33" width="143.88" height="1"/><rect class="cls-6" x="377.89" y="155.08" width="143.88" height="1"/><rect class="cls-6" x="377.89" y="146.83" width="143.88" height="1"/><rect class="cls-6" x="377.89" y="138.58" width="143.88" height="1"/><rect class="cls-6" x="377.89" y="130.33" width="143.88" height="1"/><rect class="cls-6" x="377.89" y="122.08" width="143.88" height="1"/><rect class="cls-6" x="377.89" y="113.83" width="143.88" height="1"/><path class="cls-13" d="M741.53,98.19a16.64,16.64,0,1,1-16.64-16.64,16.64,16.64,0,0,1,16.64,16.64" transform="translate(-94.12 -49.2)"/><circle class="cls-18" cx="630.77" cy="48.99" r="16.64"/><polygon class="cls-15" points="617.26 55.87 639.7 36.68 642.08 38.83 619.09 58.54 617.26 55.87"/><polygon class="cls-15" points="620.1 59.54 643.2 40.37 645.26 44.37 623.88 62.43 620.1 59.54"/><polygon class="cls-6" points="505.3 184.02 407.64 184.02 407.7 250.85 404.88 250.85 404.88 180.35 505.3 180.35 505.3 184.02"/><polygon class="cls-10" points="630.19 157.68 601.06 174.49 601.06 250.18 607.7 250.18 607.7 181.42 651.76 181.42 651.76 250.18 658.59 250.18 658.59 173 630.19 157.68"/><polygon class="cls-7" points="630.64 153.67 599.63 172.73 599.58 177.22 630.63 158.1 659.97 176.18 659.88 172.1 630.64 153.67"/></g></g></g></g></svg>