<svg id="Layer_1" data-name="Layer 1" xmlns="http://www.w3.org/2000/svg" viewBox="0 0 755.96 87.24"><defs><style>.cls-1{fill:#58595b;}.cls-2{fill:#fff;}</style></defs><title>LandOutline</title><rect class="cls-1" x="749.96" y="81.24" width="6" height="6"/><path class="cls-1" d="M983.52,347.44h-6v-6h6v6Zm-12.1,0h-6v-6h6v6Zm-12.1,0h-6v-6h6v6Zm-12.1,0h-6v-6h6v6Zm-12.1,0h-6v-6h6v6Zm-12.1,0h-6v-6h6v6Zm-12.1,0h-6v-6h6v6Zm-12.1,0h-6v-6h6v6Zm-12.1,0h-6v-6h6v6Zm-12.1,0h-6v-6h6v6Zm-12.1,0h-6v-6h6v6Zm-12.1,0h-6v-6h6v6Zm-12.1,0h-6v-6h6v6Zm-12.1,0h-6v-6h6v6Zm-12.1,0h-6v-6h6v6Zm-12.1,0h-6v-6h6v6Zm-12.1,0h-6v-6h6v6Zm-12.1,0h-6v-6h6v6Zm-12.1,0h-6v-6h6v6Zm-12.1,0h-6v-6h6v6Zm-12.1,0h-6v-6h6v6Zm-12.1,0h-6v-6h6v6Zm-12.1,0h-6v-6h6v6Zm-12.1,0h-6v-6h6v6Zm-12.1,0h-6v-6h6v6Zm-12.1,0h-6v-6h6v6Zm-12.1,0h-6v-6h6v6Zm-12.1,0h-6v-6h6v6Zm-12.1,0h-6v-6h6v6Zm-12.1,0h-6v-6h6v6Zm-12.1,0h-6v-6h6v6Zm-12.1,0h-6v-6h6v6Zm-12.1,0h-6v-6h6v6Zm-12.1,0h-6v-6h6v6Zm-12.1,0h-6v-6h6v6Zm-12.1,0h-6v-6h6v6Zm-12.1,0h-6v-6h6v6Zm-12.1,0h-6v-6h6v6Zm-12.1,0h-6v-6h6v6Zm-12.1,0h-6v-6h6v6Zm-12.1,0h-6v-6h6v6Zm-12.1,0h-6v-6h6v6Zm-12.1,0h-6v-6h6v6Zm-12.1,0h-6v-6h6v6Zm-12.1,0h-6v-6h6v6Zm-12.1,0h-6v-6h6v6Zm-12.1,0h-6v-6h6v6Zm-12.1,0h-6v-6h6v6Zm-12.1,0h-6v-6h6v6Zm-12.1,0h-6v-6h6v6Zm-12.1,0h-6v-6h6v6Zm-12.1,0h-6v-6h6v6Zm-12.1,0h-6v-6h6v6Zm-12.1,0h-6v-6h6v6Zm-12.1,0h-6v-6h6v6Zm-12.1,0h-6v-6h6v6Zm-12.1,0h-6v-6h6v6Zm-12.1,0h-6v-6h6v6Zm-12.1,0h-6v-6h6v6Zm-12.1,0h-6v-6h6v6Zm-12.1,0h-6v-6h6v6Z" transform="translate(-239.61 -260.21)"/><rect class="cls-1" y="81.24" width="6" height="6"/><path class="cls-1" d="M245.61,335.94h-6v-5.5h6v5.5Zm0-11h-6v-5.5h6v5.5Zm0-11h-6v-5.5h6v5.5Zm0-11h-6v-5.5h6v5.5Z" transform="translate(-239.61 -260.21)"/><rect class="cls-1" y="25.74" width="6" height="6"/><path class="cls-1" d="M983.52,291.95h-6v-6h6v6Zm-12.1,0h-6v-6h6v6Zm-12.1,0h-6v-6h6v6Zm-12.1,0h-6v-6h6v6Zm-12.1,0h-6v-6h6v6Zm-12.1,0h-6v-6h6v6Zm-12.1,0h-6v-6h6v6Zm-12.1,0h-6v-6h6v6Zm-12.1,0h-6v-6h6v6Zm-12.1,0h-6v-6h6v6Zm-12.1,0h-6v-6h6v6Zm-12.1,0h-6v-6h6v6Zm-12.1,0h-6v-6h6v6Zm-12.1,0h-6v-6h6v6Zm-12.1,0h-6v-6h6v6Zm-12.1,0h-6v-6h6v6Zm-12.1,0h-6v-6h6v6Zm-12.1,0h-6v-6h6v6Zm-12.1,0h-6v-6h6v6Zm-12.1,0h-6v-6h6v6Zm-12.1,0h-6v-6h6v6Zm-12.1,0h-6v-6h6v6Zm-12.1,0h-6v-6h6v6Zm-12.1,0h-6v-6h6v6Zm-12.1,0h-6v-6h6v6Zm-12.1,0h-6v-6h6v6Zm-12.1,0h-6v-6h6v6Zm-12.1,0h-6v-6h6v6Zm-12.1,0h-6v-6h6v6Zm-12.1,0h-6v-6h6v6Zm-12.1,0h-6v-6h6v6Zm-12.1,0h-6v-6h6v6Zm-12.1,0h-6v-6h6v6Zm-12.1,0h-6v-6h6v6Zm-12.1,0h-6v-6h6v6Zm-12.1,0h-6v-6h6v6Zm-12.1,0h-6v-6h6v6Zm-12.1,0h-6v-6h6v6Zm-12.1,0h-6v-6h6v6Zm-12.1,0h-6v-6h6v6Zm-12.1,0h-6v-6h6v6Zm-12.1,0h-6v-6h6v6Zm-12.1,0h-6v-6h6v6Zm-12.1,0h-6v-6h6v6Zm-12.1,0h-6v-6h6v6Zm-12.1,0h-6v-6h6v6Zm-12.1,0h-6v-6h6v6Zm-12.1,0h-6v-6h6v6Zm-12.1,0h-6v-6h6v6Zm-12.1,0h-6v-6h6v6Zm-12.1,0h-6v-6h6v6Zm-12.1,0h-6v-6h6v6Zm-12.1,0h-6v-6h6v6Zm-12.1,0h-6v-6h6v6Zm-12.1,0h-6v-6h6v6Zm-12.1,0h-6v-6h6v6Zm-12.1,0h-6v-6h6v6Zm-12.1,0h-6v-6h6v6Zm-12.1,0h-6v-6h6v6Zm-12.1,0h-6v-6h6v6Zm-12.1,0h-6v-6h6v6Z" transform="translate(-239.61 -260.21)"/><rect class="cls-1" x="749.96" y="25.74" width="6" height="6"/><path class="cls-1" d="M995.57,335.95h-6v-5.5h6v5.5Zm0-11h-6v-5.5h6v5.5Zm0-11h-6v-5.5h6v5.5Zm0-11h-6v-5.5h6v5.5Z" transform="translate(-239.61 -260.21)"/><circle class="cls-1" cx="374.13" cy="35.06" r="35.06"/><path class="cls-2" d="M589.29,283.44l2.53-.25a3.09,3.09,0,0,0,.93,1.87,2.8,2.8,0,0,0,1.89.6,2.9,2.9,0,0,0,1.89-.53,1.58,1.58,0,0,0,.64-1.24,1.17,1.17,0,0,0-.27-0.78,2.14,2.14,0,0,0-.94-0.56q-0.46-.16-2.08-0.56a7.07,7.07,0,0,1-2.94-1.27,3.35,3.35,0,0,1-1.19-2.59,3.32,3.32,0,0,1,.56-1.84,3.5,3.5,0,0,1,1.61-1.3,6.45,6.45,0,0,1,2.54-.45,5.44,5.44,0,0,1,3.65,1.06,3.75,3.75,0,0,1,1.29,2.84l-2.6.11a2.21,2.21,0,0,0-.72-1.43,2.62,2.62,0,0,0-1.65-.44,3,3,0,0,0-1.78.47,0.94,0.94,0,0,0-.41.8,1,1,0,0,0,.39.78,6.84,6.84,0,0,0,2.39.86,12.67,12.67,0,0,1,2.81.93,3.62,3.62,0,0,1,1.42,1.31,4.06,4.06,0,0,1-.1,4.13,3.68,3.68,0,0,1-1.74,1.44,7.3,7.3,0,0,1-2.8.47,5.58,5.58,0,0,1-3.75-1.13A4.91,4.91,0,0,1,589.29,283.44Z" transform="translate(-239.61 -260.21)"/><path class="cls-2" d="M601.37,282.84a5,5,0,0,1,.61-2.38,4.16,4.16,0,0,1,1.72-1.76,5.1,5.1,0,0,1,2.48-.61,4.66,4.66,0,0,1,3.47,1.38,4.75,4.75,0,0,1,1.35,3.48,4.81,4.81,0,0,1-1.37,3.51,4.62,4.62,0,0,1-3.44,1.39,5.42,5.42,0,0,1-2.45-.58,4,4,0,0,1-1.77-1.7A5.66,5.66,0,0,1,601.37,282.84ZM603.9,283a3.09,3.09,0,0,0,.66,2.13,2.15,2.15,0,0,0,3.25,0,3.13,3.13,0,0,0,.65-2.14,3.08,3.08,0,0,0-.65-2.11,2.15,2.15,0,0,0-3.25,0A3.09,3.09,0,0,0,603.9,283Z" transform="translate(-239.61 -260.21)"/><path class="cls-2" d="M619.08,287.64v-1.4a3.6,3.6,0,0,1-1.34,1.18,3.76,3.76,0,0,1-1.75.43,3.43,3.43,0,0,1-1.69-.41,2.44,2.44,0,0,1-1.08-1.16,5.18,5.18,0,0,1-.33-2.07V278.3h2.47v4.29a11.88,11.88,0,0,0,.14,2.41,1.31,1.31,0,0,0,.5.7,1.52,1.52,0,0,0,.91.26,1.94,1.94,0,0,0,1.13-.35,1.76,1.76,0,0,0,.69-0.86,10,10,0,0,0,.18-2.52V278.3h2.47v9.33h-2.29Z" transform="translate(-239.61 -260.21)"/><path class="cls-2" d="M628.21,278.3v2h-1.69V284a9.4,9.4,0,0,0,0,1.33,0.54,0.54,0,0,0,.22.31,0.7,0.7,0,0,0,.42.12,3.19,3.19,0,0,0,1-.24l0.21,1.92a4.91,4.91,0,0,1-2,.37,3.08,3.08,0,0,1-1.2-.22,1.74,1.74,0,0,1-.79-0.58,2.28,2.28,0,0,1-.35-1,12,12,0,0,1-.08-1.74v-4.07h-1.13v-2H624v-1.85l2.48-1.44v3.3h1.69Z" transform="translate(-239.61 -260.21)"/><path class="cls-2" d="M632.39,274.75v4.74a3.7,3.7,0,0,1,4.39-1.08,2.51,2.51,0,0,1,1,.81,2.93,2.93,0,0,1,.47,1.09,9.73,9.73,0,0,1,.13,1.85v5.48h-2.47V282.7a7.3,7.3,0,0,0-.14-1.86,1.22,1.22,0,0,0-.5-0.63,1.6,1.6,0,0,0-.89-0.23,2,2,0,0,0-1.1.3,1.73,1.73,0,0,0-.71.9,5.38,5.38,0,0,0-.22,1.78v4.68h-2.47V274.75h2.47Z" transform="translate(-239.61 -260.21)"/><path class="cls-2" d="M585.46,304.64V291.75h8.83v2.18h-6.23v3h5.38v2.18h-5.38v5.48h-2.6Z" transform="translate(-239.61 -260.21)"/><path class="cls-2" d="M596.42,304.64V291.75h2.47v12.88h-2.47Z" transform="translate(-239.61 -260.21)"/><path class="cls-2" d="M600.85,299.84a5,5,0,0,1,.61-2.38,4.16,4.16,0,0,1,1.72-1.76,5.1,5.1,0,0,1,2.48-.61,4.66,4.66,0,0,1,3.47,1.38,4.75,4.75,0,0,1,1.35,3.48,4.81,4.81,0,0,1-1.37,3.51,4.62,4.62,0,0,1-3.44,1.39,5.42,5.42,0,0,1-2.45-.58,4,4,0,0,1-1.77-1.7A5.66,5.66,0,0,1,600.85,299.84Zm2.53,0.13a3.09,3.09,0,0,0,.66,2.13,2.15,2.15,0,0,0,3.25,0,3.13,3.13,0,0,0,.65-2.14,3.08,3.08,0,0,0-.65-2.11,2.15,2.15,0,0,0-3.25,0A3.09,3.09,0,0,0,603.38,300Z" transform="translate(-239.61 -260.21)"/><path class="cls-2" d="M614.78,304.64h-2.47V295.3h2.29v1.33a4,4,0,0,1,1.06-1.24,2,2,0,0,1,1.07-.3,3.13,3.13,0,0,1,1.63.47l-0.76,2.15a2.17,2.17,0,0,0-1.16-.4,1.38,1.38,0,0,0-.88.29,2,2,0,0,0-.57,1,14.67,14.67,0,0,0-.21,3.13v2.88Z" transform="translate(-239.61 -260.21)"/><path class="cls-2" d="M619.42,294v-2.29h2.47V294h-2.47Zm0,10.6V295.3h2.47v9.33h-2.47Z" transform="translate(-239.61 -260.21)"/><path class="cls-2" d="M633,304.64h-2.29v-1.37a3.71,3.71,0,0,1-1.35,1.19,3.47,3.47,0,0,1-1.57.39,3.55,3.55,0,0,1-2.76-1.3,5.27,5.27,0,0,1-1.15-3.62,5.21,5.21,0,0,1,1.12-3.61,3.64,3.64,0,0,1,2.82-1.23,3.49,3.49,0,0,1,2.71,1.3v-4.64H633v12.88Zm-6.59-4.87a4.27,4.27,0,0,0,.41,2.16,1.87,1.87,0,0,0,1.67,1,1.82,1.82,0,0,0,1.45-.72,3.35,3.35,0,0,0,.6-2.17,3.66,3.66,0,0,0-.58-2.32,1.84,1.84,0,0,0-1.49-.71,1.86,1.86,0,0,0-1.47.7A3.16,3.16,0,0,0,626.39,299.77Z" transform="translate(-239.61 -260.21)"/><path class="cls-2" d="M637.26,298.15l-2.24-.4a3.49,3.49,0,0,1,1.3-2,4.76,4.76,0,0,1,2.74-.65,5.93,5.93,0,0,1,2.46.39,2.46,2.46,0,0,1,1.14,1,5.09,5.09,0,0,1,.33,2.21l0,2.88a10,10,0,0,0,.12,1.82,5.3,5.3,0,0,0,.44,1.25h-2.44q-0.1-.25-0.24-0.73-0.06-.22-0.09-0.29a4.45,4.45,0,0,1-1.35.92,3.88,3.88,0,0,1-1.54.31,3.18,3.18,0,0,1-2.27-.78,2.6,2.6,0,0,1-.83-2,2.65,2.65,0,0,1,.38-1.41,2.46,2.46,0,0,1,1.06-.95,8.23,8.23,0,0,1,2-.58,13.46,13.46,0,0,0,2.4-.61V298.3a1.28,1.28,0,0,0-.35-1,2.1,2.1,0,0,0-1.33-.3,1.77,1.77,0,0,0-1,.26A1.81,1.81,0,0,0,637.26,298.15Zm3.3,2a15.44,15.44,0,0,1-1.5.38,4.53,4.53,0,0,0-1.34.43,1,1,0,0,0-.48.87,1.21,1.21,0,0,0,.39.9,1.35,1.35,0,0,0,1,.38,2.14,2.14,0,0,0,1.27-.44,1.55,1.55,0,0,0,.59-0.82,4.88,4.88,0,0,0,.1-1.2v-0.49Z" transform="translate(-239.61 -260.21)"/><path class="cls-2" d="M606.86,316.9l2.52,0.8a5.65,5.65,0,0,1-1.93,3.13,6.07,6.07,0,0,1-7.64-.73,6.71,6.71,0,0,1-1.65-4.79,7,7,0,0,1,1.66-5,5.69,5.69,0,0,1,4.37-1.78,5.36,5.36,0,0,1,3.84,1.4,5.08,5.08,0,0,1,1.32,2.37l-2.58.62a2.66,2.66,0,0,0-2.72-2.16,2.93,2.93,0,0,0-2.32,1,5,5,0,0,0-.89,3.33,5.4,5.4,0,0,0,.88,3.48,2.85,2.85,0,0,0,2.29,1,2.61,2.61,0,0,0,1.78-.66A3.83,3.83,0,0,0,606.86,316.9Z" transform="translate(-239.61 -260.21)"/><path class="cls-2" d="M611.69,321.64V308.86h2.6v10.61h6.47v2.17h-9.07Z" transform="translate(-239.61 -260.21)"/><path class="cls-2" d="M624.18,321.64V310.93h-3.82v-2.18h10.24v2.18h-3.81v10.71h-2.6Z" transform="translate(-239.61 -260.21)"/></svg>