<svg id="Layer_1" data-name="Layer 1" xmlns="http://www.w3.org/2000/svg" viewBox="0 0 41.75 53.07"><defs><style>.cls-1{fill:#58595b;fill-rule:evenodd;}</style></defs><title>ManWomanIcon</title><path class="cls-1" d="M605.59,286.64a5.32,5.32,0,0,0,5.07-4.88,5.37,5.37,0,0,0-4.95-5.06,5.49,5.49,0,0,0-5,5.13A5.09,5.09,0,0,0,605.59,286.64Zm9.89,7a28,28,0,0,0,0-3.77,3.2,3.2,0,0,0-3.14-2.51h-11.9c-1.25,0-2.07-.09-3,0.76-1.27,1.44-1.14,1.57-1.14,5.58v7.66c0,2-.34,5.07,1.65,5.07s1.87-1.34,1.87-3.35c0-2.83,0-3.56,0-5.23,0-1.83-.11-2.14.26-2.14s0.37,0,.37,2,0,27.13,0,28.59a2.4,2.4,0,0,0,2.56,2.6c1.88,0,2.67-1.1,2.67-2.36V313.34c0-1.25,0-1.86.35-1.86s0.27,0.61.27,1.86v13.18A2.73,2.73,0,0,0,609,329a2.93,2.93,0,0,0,2.41-2.45c0-5,0-27.35,0-28.93,0-.86-0.07-1.94.25-1.94S612,296,612,297.2V302c0,3.3.51,4.17,1.77,4.17,1.88,0,1.72-3.22,1.72-5v-7.53Z" transform="translate(-596.27 -276.69)"/><path class="cls-1" d="M634.84,294.48a26.63,26.63,0,0,0-1.26-3.78,3.22,3.22,0,0,0-3.15-2.52h-8.19a3.92,3.92,0,0,0-3.78,2.52l-1.26,3.78L614.69,302c-0.63,1.89-1.89,4.41,0,5s3.15-3.15,3.78-5l1.26-3.78c0.13-.34.38-1.44,0.88-1.26,0.31,0.13,0,.55-0.25,1.26-0.49,1.78-4.41,13.86-4.41,13.86h5v15.11c0,1.26.43,2.54,2.15,2.54a2.24,2.24,0,0,0,2.26-2.54V314c0-1.26,0-1.87.35-1.87s0.28,0.61.28,1.87v13.23a2.31,2.31,0,0,0,2.24,2.5,2.33,2.33,0,0,0,2.16-2.5V312.12h5s-3.42-12-3.9-13.89c-0.19-.88-0.43-1.22-0.12-1.41s0.21,0.05.88,2.07l1.26,3.78c0.44,1.3,1.26,4.41,2.52,4.41,1.89,0,2.52-1.26,1.26-5Zm-8.67-7a5.33,5.33,0,0,0,5.09-4.9,5.39,5.39,0,0,0-5-5.08,5.51,5.51,0,0,0-5,5.14A5.11,5.11,0,0,0,626.18,287.45Z" transform="translate(-596.27 -276.69)"/></svg>