<svg id="Layer_1" data-name="Layer 1" xmlns="http://www.w3.org/2000/svg" viewBox="0 0 64.82 64.82"><defs><style>.cls-1{fill:#009444;}.cls-2{fill:#fff;}</style></defs><title>MoneyButton</title><circle class="cls-1" cx="32.41" cy="32.41" r="32.41"/><path class="cls-2" d="M549.05,181.08l-14.18-15.49L509.52,188.8l0.66,0.72,13.51,14.76Zm-36.75,7.84,22.45-20.55L546.28,181l-22.45,20.55ZM522.85,181L515,188.19l1.24,1.36-0.75.69,7.26,7.93,0.75-.69,1.23,1.34,7.84-7.18c-2.47.89-5.68,0-7.94-2.49S521.75,183.4,522.85,181Zm11-10-8.06,7.38c2.48-.89,5.68,0,7.94,2.49s2.89,5.75,1.78,8.13l8.06-7.38-1.27-1.39,0.73-.66-7.22-7.88-0.72.66Z" transform="translate(-496.27 -152.12)"/></svg>