<svg id="Layer_1" data-name="Layer 1" xmlns="http://www.w3.org/2000/svg" viewBox="0 0 64.82 64.82"><defs><style>.cls-1{fill:#f7941e;}.cls-2{fill:#fff;}</style></defs><title>PricTagSymbol</title><circle class="cls-1" cx="32.41" cy="32.41" r="32.41"/><path class="cls-2" d="M552.46,186.61a1.58,1.58,0,0,0,.4.92,1.51,1.51,0,0,0,.8.47,2,2,0,0,0,1.09-.09l-2.07-2.32A1.69,1.69,0,0,0,552.46,186.61Z" transform="translate(-519.99 -152.17)"/><path class="cls-2" d="M546.51,179.24a1.82,1.82,0,0,0,0-2.57L538.8,169a1.82,1.82,0,0,0-2.57,2.57l7.71,7.71A1.82,1.82,0,0,0,546.51,179.24Z" transform="translate(-519.99 -152.17)"/><path class="cls-2" d="M559,189a2.27,2.27,0,0,0-1.31.28l2.33,2.61a1.83,1.83,0,0,0,.4-1.19,1.76,1.76,0,0,0-.47-1.16A1.59,1.59,0,0,0,559,189Z" transform="translate(-519.99 -152.17)"/><path class="cls-2" d="M570.49,190.11l-18.22-18.22a2.56,2.56,0,0,0-1.31-.7,2.18,2.18,0,0,0-.76-0.14h-8l5.15,5.15a2.57,2.57,0,0,1,0,3.63l-0.23.23a2.57,2.57,0,0,1-3.63,0l-4.9-4.9v7.67a2.18,2.18,0,0,0,.23,1,2.53,2.53,0,0,0,.59.92L557.64,203a2.57,2.57,0,0,0,3.63,0l9.22-9.22A2.57,2.57,0,0,0,570.49,190.11Zm-8,4.47-1,.87-1.09-1.22a4.16,4.16,0,0,1-2.65.82,4.77,4.77,0,0,1-2.75-1.22l1.58-1.75a3,3,0,0,0,1.23.57,2.46,2.46,0,0,0,1.16,0l-2.51-2.81a5,5,0,0,1-2.94.58,3.81,3.81,0,0,1-2.26-1.3,3.5,3.5,0,0,1-1-2.46,3.75,3.75,0,0,1,1.08-2.51l-0.59-.66,1-.87,0.59,0.66a3.85,3.85,0,0,1,2.34-.79,3.76,3.76,0,0,1,2.24.89l-1.5,1.73a1.83,1.83,0,0,0-1.76-.35l2.34,2.62a5.79,5.79,0,0,1,3.2-.83,3.58,3.58,0,0,1,2.17,1.26,4,4,0,0,1,1.09,2.7,4.32,4.32,0,0,1-1.13,2.84Z" transform="translate(-519.99 -152.17)"/></svg>