<svg id="Layer_1" data-name="Layer 1" xmlns="http://www.w3.org/2000/svg" viewBox="0 0 202.95 59.06"><defs><style>.cls-1{fill:#58595b;fill-rule:evenodd;}.cls-2{fill:#da1c5c;}</style></defs><title>ArrowSellerBuyerFamilyIcon</title><path class="cls-1" d="M669.12,289.57a5.35,5.35,0,0,0,5.09-4.91,5.4,5.4,0,0,0-5-5.09,5.52,5.52,0,0,0-5,5.15A5.12,5.12,0,0,0,669.12,289.57Zm9.94,7a28.1,28.1,0,0,0,0-3.79,3.22,3.22,0,0,0-3.16-2.52h-12c-1.26,0-2.08-.09-3,0.77-1.28,1.45-1.15,1.57-1.15,5.61v7.71c0,2-.34,5.09,1.66,5.09s1.88-1.35,1.88-3.37c0-2.84,0-3.58,0-5.26,0-1.84-.11-2.15.26-2.15s0.37,0,.37,2,0,27.27,0,28.75a2.41,2.41,0,0,0,2.57,2.61c1.89,0,2.69-1.11,2.69-2.37V316.42c0-1.26,0-1.87.35-1.87s0.28,0.61.28,1.87v13.25a2.74,2.74,0,0,0,2.73,2.49,2.94,2.94,0,0,0,2.42-2.46c0-5,0-27.5,0-29.09,0-.86-0.07-2,0.25-2s0.32,0.3.32,1.54V305c0,3.32.52,4.19,1.78,4.19,1.89,0,1.73-3.24,1.73-5v-7.57Z" transform="translate(-515.89 -273.87)"/><path class="cls-1" d="M698.53,297.46a26.78,26.78,0,0,0-1.27-3.8,3.23,3.23,0,0,0-3.17-2.53h-8.23a3.94,3.94,0,0,0-3.8,2.53l-1.27,3.8-2.53,7.6c-0.64,1.9-1.9,4.43,0,5.06s3.16-3.16,3.8-5.06l1.27-3.8c0.14-.35.39-1.45,0.88-1.26,0.31,0.13,0,.55-0.25,1.26-0.49,1.79-4.43,13.93-4.43,13.93h5.07v15.19c0,1.27.44,2.55,2.16,2.55a2.25,2.25,0,0,0,2.28-2.55v-13.3c0-1.26,0-1.88.35-1.88s0.28,0.62.28,1.88v13.3a2.32,2.32,0,0,0,2.26,2.51,2.35,2.35,0,0,0,2.18-2.51V315.19h5.06s-3.43-12-3.92-14c-0.19-.89-0.43-1.22-0.12-1.42s0.21,0.05.88,2.08l1.27,3.8c0.44,1.31,1.27,4.43,2.53,4.43,1.9,0,2.53-1.27,1.27-5.06Zm-8.71-7.07a5.36,5.36,0,0,0,5.11-4.93,5.42,5.42,0,0,0-5-5.11,5.54,5.54,0,0,0-5,5.17A5.13,5.13,0,0,0,689.81,290.39Z" transform="translate(-515.89 -273.87)"/><path class="cls-1" d="M648.46,298.52a4.32,4.32,0,0,0,4.12-4,4.37,4.37,0,0,0-4-4.11,4.46,4.46,0,0,0-4.07,4.16A4.13,4.13,0,0,0,648.46,298.52Zm8,5.69a22.71,22.71,0,0,0,0-3.06,2.6,2.6,0,0,0-2.55-2h-9.67a3,3,0,0,0-2.44.62c-1,1.17-.93,1.27-0.93,4.53v6.23c0,1.61-.27,4.12,1.34,4.12s1.52-1.09,1.52-2.72c0-2.3,0-2.89,0-4.25s-0.09-1.74.21-1.74,0.3,0,.3,1.6,0,22,0,23.23a2,2,0,0,0,2.08,2.11,1.89,1.89,0,0,0,2.17-1.92V320.21c0-1,0-1.51.29-1.51s0.22,0.49.22,1.51v10.71a2.22,2.22,0,0,0,2.2,2,2.38,2.38,0,0,0,2-2c0-4.08,0-22.23,0-23.51,0-.7-0.06-1.58.2-1.58s0.26,0.24.26,1.24V311c0,2.68.42,3.39,1.44,3.39,1.53,0,1.4-2.62,1.4-4.08v-6.12Z" transform="translate(-515.89 -273.87)"/><path class="cls-1" d="M716.57,307.65a19.08,19.08,0,0,0-.9-2.71,2.3,2.3,0,0,0-2.26-1.81h-5.86a2.81,2.81,0,0,0-2.71,1.81l-0.9,2.71-1.8,5.41c-0.45,1.35-1.35,3.16,0,3.61s2.26-2.25,2.71-3.61l0.9-2.71c0.1-.25.28-1,0.63-0.9s0,0.39-.18.9c-0.35,1.28-3.16,9.93-3.16,9.93h3.61v10.83a1.53,1.53,0,0,0,1.54,1.82,1.6,1.6,0,0,0,1.62-1.82v-9.47c0-.9,0-1.34.25-1.34s0.2,0.44.2,1.34v9.47a1.65,1.65,0,0,0,1.61,1.79,1.67,1.67,0,0,0,1.55-1.79V320.29H717s-2.45-8.56-2.8-9.95c-0.13-.63-0.31-0.87-0.09-1s0.15,0,.63,1.48l0.9,2.71c0.31,0.93.9,3.16,1.8,3.16,1.35,0,1.81-.9.9-3.61Zm-6.21-5a3.82,3.82,0,0,0,3.64-3.51,3.86,3.86,0,0,0-3.56-3.64,4,4,0,0,0-3.6,3.69A3.66,3.66,0,0,0,710.36,302.62Z" transform="translate(-515.89 -273.87)"/><path class="cls-2" d="M571.29,311h33.27v12.37l29.7-25L605,273.87v13.61H571.29V311Z" transform="translate(-515.89 -273.87)"/><path class="cls-1" d="M525.21,287.93a5.32,5.32,0,0,0,5.07-4.88,5.37,5.37,0,0,0-4.95-5.06,5.49,5.49,0,0,0-5,5.13A5.09,5.09,0,0,0,525.21,287.93Zm9.89,7a28,28,0,0,0,0-3.77,3.2,3.2,0,0,0-3.14-2.51h-11.9c-1.25,0-2.07-.09-3,0.76-1.27,1.44-1.14,1.57-1.14,5.58v7.66c0,2-.34,5.07,1.65,5.07s1.87-1.34,1.87-3.35c0-2.83,0-3.56,0-5.23,0-1.83-.11-2.14.26-2.14s0.37,0,.37,2,0,27.13,0,28.59a2.4,2.4,0,0,0,2.56,2.6c1.88,0,2.67-1.1,2.67-2.36V314.63c0-1.25,0-1.86.35-1.86s0.27,0.61.27,1.86V327.8a2.73,2.73,0,0,0,2.71,2.48,2.93,2.93,0,0,0,2.41-2.45c0-5,0-27.35,0-28.93,0-.86-0.07-1.94.25-1.94s0.32,0.29.32,1.53v4.83c0,3.3.51,4.17,1.77,4.17,1.88,0,1.72-3.22,1.72-5v-7.53Z" transform="translate(-515.89 -273.87)"/><path class="cls-1" d="M554.46,295.76A26.63,26.63,0,0,0,553.2,292a3.22,3.22,0,0,0-3.15-2.52h-8.19a3.92,3.92,0,0,0-3.78,2.52l-1.26,3.78-2.52,7.56c-0.63,1.89-1.89,4.41,0,5s3.15-3.15,3.78-5l1.26-3.78c0.13-.34.38-1.44,0.88-1.26,0.31,0.13,0,.55-0.25,1.26-0.49,1.78-4.41,13.86-4.41,13.86h5v15.11c0,1.26.43,2.54,2.15,2.54a2.24,2.24,0,0,0,2.26-2.54V315.29c0-1.26,0-1.87.35-1.87s0.28,0.61.28,1.87v13.23a2.31,2.31,0,0,0,2.24,2.5,2.33,2.33,0,0,0,2.16-2.5V313.4h5s-3.42-12-3.9-13.89c-0.19-.88-0.43-1.22-0.12-1.41s0.21,0.05.88,2.07L553.2,304c0.44,1.3,1.26,4.41,2.52,4.41,1.89,0,2.52-1.26,1.26-5Zm-8.67-7a5.33,5.33,0,0,0,5.09-4.9,5.39,5.39,0,0,0-5-5.08,5.51,5.51,0,0,0-5,5.14A5.11,5.11,0,0,0,545.8,288.73Z" transform="translate(-515.89 -273.87)"/></svg>