<svg id="Layer_1" data-name="Layer 1" xmlns="http://www.w3.org/2000/svg" xmlns:xlink="http://www.w3.org/1999/xlink" viewBox="0 0 405.98 113.45"><defs><style>.cls-1{fill:none;}.cls-2{fill:#8bb836;}.cls-3{fill:#bcbec0;}.cls-4{clip-path:url(#clip-path);}</style><clipPath id="clip-path" transform="translate(-383.33 -123.82)"><path class="cls-1" d="M468.59,182.83c0.34,9.86-.82,17.92-5.38,24.69-7.75,11.53-26.33,19-38.37,18.67-23.87-.75-43.23-19.36-43.23-43.23a43.23,43.23,0,0,1,43.23-43.23C448.72,139.72,467.77,158.68,468.59,182.83Z"/></clipPath></defs><title>SFCLT-logo</title><path class="cls-2" d="M495,202.69q0-9.25,7.57-9.25a8.08,8.08,0,0,1,3.43.65,5.84,5.84,0,0,1,2.26,1.81,7.51,7.51,0,0,1,1.25,2.75,14.85,14.85,0,0,1,.38,3.48v2.25h-5.19V202q0-.84-0.07-1.63a5.59,5.59,0,0,0-.28-1.41,2.38,2.38,0,0,0-.64-1,1.81,1.81,0,0,0-1.14-.43q-2.29,0-2.29,3.86v11.27q0,3.84,2.29,3.84a1.58,1.58,0,0,0,1.13-.4,2.64,2.64,0,0,0,.65-1,5.81,5.81,0,0,0,.3-1.44q0.07-.8.07-1.6v-2.68h5.16v2.2a22,22,0,0,1-.17,2.28,11.4,11.4,0,0,1-.48,2.12,8.15,8.15,0,0,1-.88,1.86,5.79,5.79,0,0,1-1.34,1.46,6.07,6.07,0,0,1-1.9,1,8.43,8.43,0,0,1-2.54.35,8.92,8.92,0,0,1-2.59-.34,6.56,6.56,0,0,1-2-.95,5.9,5.9,0,0,1-1.42-1.46,7.84,7.84,0,0,1-.93-1.88,11.11,11.11,0,0,1-.51-2.2,18.51,18.51,0,0,1-.15-2.4v-8.64Z" transform="translate(-383.33 -123.82)"/><path class="cls-2" d="M511.45,202.69q0-9.25,7.63-9.25t7.64,9.25v8.64a15.89,15.89,0,0,1-.38,3.56,8.21,8.21,0,0,1-1.28,2.94,6.25,6.25,0,0,1-2.36,2,8.07,8.07,0,0,1-3.62.73,8.22,8.22,0,0,1-3.62-.71,6.18,6.18,0,0,1-2.35-1.94,7.92,7.92,0,0,1-1.28-2.89,15.66,15.66,0,0,1-.38-3.55v-8.77Zm10-1.32q0-3.86-2.36-3.86a1.87,1.87,0,0,0-1.18.35,2.47,2.47,0,0,0-.72.91,4.21,4.21,0,0,0-.36,1.24,9.94,9.94,0,0,0-.09,1.36v11.28q0,3.84,2.35,3.84t2.36-3.84V201.37Z" transform="translate(-383.33 -123.82)"/><path class="cls-2" d="M529.48,193.95h6.32l2.78,17.4,3-17.4h6.1V220h-3.89V201.69L540.65,220H536.7l-3.2-18.47V220h-4v-26.1Z" transform="translate(-383.33 -123.82)"/><path class="cls-2" d="M550.8,193.95h6.32l2.78,17.4,3-17.4H569V220h-3.89V201.69L562,220H558l-3.2-18.47V220h-4v-26.1Z" transform="translate(-383.33 -123.82)"/><path class="cls-2" d="M572,193.95h5.28v17.73q0,1,0,1.89a5.66,5.66,0,0,0,.26,1.52,2.13,2.13,0,0,0,.68,1,2.07,2.07,0,0,0,1.32.37A2.23,2.23,0,0,0,581,216a2.52,2.52,0,0,0,.73-1.54,32.64,32.64,0,0,0,.17-4.32V193.95h5.28v16.4q0,1.26-.09,2.51a14.26,14.26,0,0,1-.36,2.38,9.43,9.43,0,0,1-.78,2.11,5.47,5.47,0,0,1-1.36,1.69,6.24,6.24,0,0,1-2.08,1.12,10.86,10.86,0,0,1-5.81,0,6.28,6.28,0,0,1-2.06-1.07,5.41,5.41,0,0,1-1.37-1.63,9.12,9.12,0,0,1-.82-2.08,13.83,13.83,0,0,1-.4-2.41q-0.1-1.28-.1-2.63v-16.4Z" transform="translate(-383.33 -123.82)"/><path class="cls-2" d="M590.2,193.95H594l5.73,13.64V193.95h4.38V220h-3.65l-5.71-14.48V220H590.2v-26.1Z" transform="translate(-383.33 -123.82)"/><path class="cls-2" d="M607.21,193.95h5.28V220h-5.28v-26.1Z" transform="translate(-383.33 -123.82)"/><path class="cls-2" d="M618.11,197.89h-3.83v-3.94h12.86v3.94h-3.76V220h-5.28V197.89Z" transform="translate(-383.33 -123.82)"/><path class="cls-2" d="M632.33,211.42l-4.9-17.47h5l2.44,11.47,2.68-11.47h4.83l-4.92,17.47V220h-5.1v-8.63Z" transform="translate(-383.33 -123.82)"/><path class="cls-2" d="M648,193.95h5.28v22.47h5.19V220H648v-26.1Z" transform="translate(-383.33 -123.82)"/><path class="cls-2" d="M665,193.95h4.67l5.62,26.1h-5.2l-1.07-5.58h-3.41l-1,5.58H659.4Zm3.67,17.27-1.32-9.68L666,211.21h2.7Z" transform="translate(-383.33 -123.82)"/><path class="cls-2" d="M677.14,193.95h3.8l5.73,13.64V193.95H691V220h-3.65l-5.71-14.48V220h-4.54v-26.1Z" transform="translate(-383.33 -123.82)"/><path class="cls-2" d="M694.15,193.95h5.28a16.62,16.62,0,0,1,4.38.48,5.83,5.83,0,0,1,2.7,1.5,5.55,5.55,0,0,1,1.37,2.62,16.72,16.72,0,0,1,.38,3.85V211q0,1.45-.1,2.68a10.21,10.21,0,0,1-.42,2.24,5.84,5.84,0,0,1-.91,1.78,4.79,4.79,0,0,1-1.56,1.31,8.29,8.29,0,0,1-2.38.8,17.67,17.67,0,0,1-3.35.28h-5.39v-26.1Zm5.39,22.4q0.94,0,1.6,0a2.44,2.44,0,0,0,1.07-.28,1.35,1.35,0,0,0,.59-0.74,4.39,4.39,0,0,0,.18-1.43v-14a2.69,2.69,0,0,0-.18-1.06,1.39,1.39,0,0,0-.59-0.66,2.87,2.87,0,0,0-1-.33,10.72,10.72,0,0,0-1.54-.09h-0.2v18.69h0.12Z" transform="translate(-383.33 -123.82)"/><path class="cls-2" d="M717.58,197.89h-3.83v-3.94h12.86v3.94h-3.76V220h-5.28V197.89Z" transform="translate(-383.33 -123.82)"/><path class="cls-2" d="M728.41,193.95h5.74a14.79,14.79,0,0,1,3.45.37,7,7,0,0,1,2.62,1.19,5.31,5.31,0,0,1,1.67,2.12,7.83,7.83,0,0,1,.58,3.19,18.26,18.26,0,0,1-.09,1.83,6.49,6.49,0,0,1-.46,1.83,5.51,5.51,0,0,1-1.07,1.65,5.72,5.72,0,0,1-1.93,1.31Q741.27,214.9,743,220h-5.47l-3-12h-0.87v12h-5.28v-26.1Zm6.78,10.86a1.39,1.39,0,0,0,.73-0.19,1.86,1.86,0,0,0,.54-0.49,3,3,0,0,0,.38-0.69,4.43,4.43,0,0,0,.23-0.78q0.08-.4.12-0.77c0-.25,0-0.46,0-0.65a9.21,9.21,0,0,0-.07-1,4.87,4.87,0,0,0-.26-1.12,2.78,2.78,0,0,0-.54-0.92,1.17,1.17,0,0,0-.91-0.38h-1.75v7h1.51Z" transform="translate(-383.33 -123.82)"/><path class="cls-2" d="M744.56,193.95h5.28v17.73q0,1,0,1.89a5.66,5.66,0,0,0,.26,1.52,2.13,2.13,0,0,0,.68,1,2.07,2.07,0,0,0,1.32.37,2.23,2.23,0,0,0,1.46-.44,2.52,2.52,0,0,0,.73-1.54,32.5,32.5,0,0,0,.17-4.32V193.95h5.28v16.4q0,1.26-.09,2.51a14.26,14.26,0,0,1-.36,2.38,9.43,9.43,0,0,1-.78,2.11,5.47,5.47,0,0,1-1.36,1.69,6.24,6.24,0,0,1-2.08,1.12,10.87,10.87,0,0,1-5.81,0,6.28,6.28,0,0,1-2.06-1.07,5.41,5.41,0,0,1-1.37-1.63,9.12,9.12,0,0,1-.82-2.08,13.83,13.83,0,0,1-.4-2.41q-0.1-1.28-.1-2.63v-16.4Z" transform="translate(-383.33 -123.82)"/><path class="cls-2" d="M767.39,211.55q0,0.93.06,1.8a7,7,0,0,0,.27,1.57,2.87,2.87,0,0,0,.61,1.13,1.53,1.53,0,0,0,1.08.48q1.57,0,1.57-2,0-2.73-3.09-5.45l-1.64-1.39q-0.7-.58-1.44-1.24a8.89,8.89,0,0,1-1.35-1.52,8.11,8.11,0,0,1-1-2,8,8,0,0,1-.4-2.65,7.31,7.31,0,0,1,.54-2.86,6.17,6.17,0,0,1,1.5-2.17,6.62,6.62,0,0,1,2.32-1.37,9,9,0,0,1,3-.48,6.32,6.32,0,0,1,2.59.54,6.88,6.88,0,0,1,2.12,1.45,6.78,6.78,0,0,1,1.43,2.14,6.57,6.57,0,0,1,.52,2.6v0.62l-5.45.75c0-.06,0-0.13,0-0.22s0-.18,0-0.28,0-.2,0-0.3,0-.18,0-0.26a7.44,7.44,0,0,0-.07-1,4,4,0,0,0-.25-1,2,2,0,0,0-.51-0.73,1.21,1.21,0,0,0-.83-0.29,1.49,1.49,0,0,0-.76.19,1.66,1.66,0,0,0-.54.51,2.32,2.32,0,0,0-.33.73,3.38,3.38,0,0,0-.11.86,4.64,4.64,0,0,0,.14,1.2,4.1,4.1,0,0,0,.44,1,5.53,5.53,0,0,0,.7.94,10.09,10.09,0,0,0,.95.9l1.93,1.65a22.41,22.41,0,0,1,1.91,1.87,12.14,12.14,0,0,1,1.49,2,9.82,9.82,0,0,1,1,2.3,10,10,0,0,1,.34,2.68,5.91,5.91,0,0,1-.53,2.51,6.09,6.09,0,0,1-1.44,2,6.58,6.58,0,0,1-2.13,1.29,7.89,7.89,0,0,1-5.81-.19,6.54,6.54,0,0,1-2.25-1.76,7.72,7.72,0,0,1-1.37-2.55,11.56,11.56,0,0,1-.54-3Z" transform="translate(-383.33 -123.82)"/><path class="cls-2" d="M780.28,197.89h-3.83v-3.94h12.86v3.94h-3.76V220h-5.28V197.89Z" transform="translate(-383.33 -123.82)"/><path class="cls-3" d="M501.8,171.06q0,1.47.09,2.85a11.12,11.12,0,0,0,.42,2.48,4.54,4.54,0,0,0,1,1.79,2.42,2.42,0,0,0,1.71.76q2.47,0,2.47-3.16,0-4.3-4.88-8.61L500,165q-1.1-.91-2.27-2a14.11,14.11,0,0,1-2.13-2.4,12.77,12.77,0,0,1-1.59-3.15,12.59,12.59,0,0,1-.63-4.19,11.53,11.53,0,0,1,.85-4.51,9.73,9.73,0,0,1,2.37-3.42,10.43,10.43,0,0,1,3.66-2.16,14.19,14.19,0,0,1,4.75-.76,10,10,0,0,1,4.09.85,10.87,10.87,0,0,1,3.34,2.29,10.71,10.71,0,0,1,2.25,3.38,10.38,10.38,0,0,1,.82,4.11l0,1-8.61,1.19c0-.09,0-0.21,0-0.34s0-.29,0-0.45l0-.47q0-.23,0-0.41a11.74,11.74,0,0,0-.11-1.59,6.29,6.29,0,0,0-.4-1.53,3.09,3.09,0,0,0-.8-1.16,1.91,1.91,0,0,0-1.32-.46,2.36,2.36,0,0,0-1.2.3,2.61,2.61,0,0,0-.86.8,3.73,3.73,0,0,0-.52,1.16,5.34,5.34,0,0,0-.17,1.36,7.31,7.31,0,0,0,.23,1.89,6.51,6.51,0,0,0,.69,1.64,8.76,8.76,0,0,0,1.11,1.49,15.93,15.93,0,0,0,1.5,1.42l3,2.61a35.58,35.58,0,0,1,3,3,19.16,19.16,0,0,1,2.35,3.2,15.41,15.41,0,0,1,1.52,3.63,15.74,15.74,0,0,1,.54,4.22,9.33,9.33,0,0,1-.84,4,9.63,9.63,0,0,1-2.27,3.11,10.39,10.39,0,0,1-3.36,2,12.45,12.45,0,0,1-9.17-.3,10.35,10.35,0,0,1-3.56-2.78,12.2,12.2,0,0,1-2.16-4,18.3,18.3,0,0,1-.85-4.8Z" transform="translate(-383.33 -123.82)"/><path class="cls-3" d="M518.53,157.07q0-14.6,12-14.61t12.06,14.61v13.64a25.09,25.09,0,0,1-.61,5.62,13,13,0,0,1-2,4.64,9.86,9.86,0,0,1-3.72,3.15,12.73,12.73,0,0,1-5.72,1.16,13,13,0,0,1-5.71-1.12,9.76,9.76,0,0,1-3.71-3.07,12.5,12.5,0,0,1-2-4.56,24.74,24.74,0,0,1-.61-5.61V157.07ZM534.3,155q0-6.09-3.73-6.09a3,3,0,0,0-1.87.56,3.89,3.89,0,0,0-1.13,1.43,6.66,6.66,0,0,0-.56,2,15.76,15.76,0,0,0-.15,2.14V172.8q0,6.07,3.71,6.07t3.73-6.07V155Z" transform="translate(-383.33 -123.82)"/><path class="cls-3" d="M546.82,143.27h8.33v28q0,1.6.07,3a8.94,8.94,0,0,0,.41,2.4,3.36,3.36,0,0,0,1.08,1.6,3.27,3.27,0,0,0,2.08.58,3.52,3.52,0,0,0,2.3-.69,4,4,0,0,0,1.16-2.43,51.37,51.37,0,0,0,.27-6.82V143.27h8.33v25.89q0,2-.14,4a22.52,22.52,0,0,1-.57,3.75,14.87,14.87,0,0,1-1.24,3.33,8.64,8.64,0,0,1-2.14,2.67,9.85,9.85,0,0,1-3.28,1.76,17.16,17.16,0,0,1-9.17,0,9.92,9.92,0,0,1-3.25-1.68,8.57,8.57,0,0,1-2.16-2.58,14.37,14.37,0,0,1-1.29-3.28,21.71,21.71,0,0,1-.63-3.81q-0.16-2-.16-4.15V143.27Z" transform="translate(-383.33 -123.82)"/><path class="cls-3" d="M579.56,149.5h-6v-6.23h20.3v6.23h-5.93v35h-8.33v-35Z" transform="translate(-383.33 -123.82)"/><path class="cls-3" d="M596.66,143.27H605v16.89h6V143.27h8.38v41.21H611V166.09h-6v18.38h-8.33V143.27Z" transform="translate(-383.33 -123.82)"/><path class="cls-3" d="M630.61,143.27H647.8V149h-8.86v11.22h6.27v5.86h-6.27v18.41h-8.33V143.27Z" transform="translate(-383.33 -123.82)"/><path class="cls-3" d="M650.73,143.27h8.33v35.48h8.19v5.72H650.73V143.27Z" transform="translate(-383.33 -123.82)"/><path class="cls-3" d="M668.79,157.07q0-14.6,12-14.61t12.06,14.61v13.64a25.09,25.09,0,0,1-.61,5.62,13,13,0,0,1-2,4.64,9.87,9.87,0,0,1-3.72,3.15,12.72,12.72,0,0,1-5.72,1.16,13,13,0,0,1-5.71-1.12,9.77,9.77,0,0,1-3.71-3.07,12.51,12.51,0,0,1-2-4.56,24.68,24.68,0,0,1-.61-5.61V157.07ZM684.57,155q0-6.09-3.73-6.09a3,3,0,0,0-1.87.56,3.91,3.91,0,0,0-1.13,1.43,6.66,6.66,0,0,0-.56,2,15.67,15.67,0,0,0-.15,2.14V172.8q0,6.07,3.71,6.07t3.73-6.07V155Z" transform="translate(-383.33 -123.82)"/><path class="cls-3" d="M697.27,143.27h9.07a23.34,23.34,0,0,1,5.45.58,11.12,11.12,0,0,1,4.14,1.88,8.38,8.38,0,0,1,2.63,3.35,12.39,12.39,0,0,1,.92,5,28.78,28.78,0,0,1-.15,2.88,10.25,10.25,0,0,1-.72,2.88,8.73,8.73,0,0,1-1.7,2.61,9,9,0,0,1-3,2.06q3.71,11.79,6.46,19.92h-8.63l-4.72-19H705.6v19h-8.33V143.27ZM708,160.42a2.19,2.19,0,0,0,1.16-.3,2.94,2.94,0,0,0,.85-0.78,4.81,4.81,0,0,0,.6-1.09,7.31,7.31,0,0,0,.37-1.24c0.08-.42.14-0.82,0.18-1.21s0.06-.73.06-1a14.53,14.53,0,0,0-.1-1.57,7.59,7.59,0,0,0-.41-1.77,4.36,4.36,0,0,0-.86-1.45,1.86,1.86,0,0,0-1.44-.61H705.6v11H708Z" transform="translate(-383.33 -123.82)"/><path class="cls-3" d="M723.23,143.27h8.33v41.21h-8.33V143.27Z" transform="translate(-383.33 -123.82)"/><path class="cls-3" d="M736.46,143.27h8.33a26.27,26.27,0,0,1,6.91.76,9.22,9.22,0,0,1,4.26,2.37,8.79,8.79,0,0,1,2.16,4.14,26.41,26.41,0,0,1,.61,6.08v13.51q0,2.29-.16,4.23a16.11,16.11,0,0,1-.66,3.54,9.21,9.21,0,0,1-1.43,2.82,7.55,7.55,0,0,1-2.46,2.06,13.11,13.11,0,0,1-3.75,1.27,27.89,27.89,0,0,1-5.29.43h-8.52V143.27ZM745,178.64q1.49,0,2.52-.07a3.86,3.86,0,0,0,1.68-.45,2.14,2.14,0,0,0,.94-1.17,6.92,6.92,0,0,0,.29-2.25V152.52a4.24,4.24,0,0,0-.29-1.67,2.2,2.2,0,0,0-.93-1,4.54,4.54,0,0,0-1.64-.53,16.85,16.85,0,0,0-2.44-.15h-0.32v29.51H745Z" transform="translate(-383.33 -123.82)"/><path class="cls-3" d="M769.24,143.27h7.37l8.88,41.21h-8.22l-1.69-8.81H770.2l-1.6,8.81h-8.26ZM775,170.53l-2.08-15.29-2.17,15.29H775Z" transform="translate(-383.33 -123.82)"/><g class="cls-4"><path class="cls-2" d="M443.79,170.88l0,32.54-12.28-11.36-13.78,13.85h1.58v1.94h-0.91l0-1.38h-3.11l7.16-7-2.49-2.19L409,208.16h2.1l0,21.59,57.9,0,0-58.84Zm-14.68,44.39h-4.19v-9.42h4.19v9.42Zm20-39.67h4.31v8.1h-4.31v-8.1Zm0,14h4.31V199h-4.31v-9.41Zm4.14,22.53-4,2.93V203.61h4v8.57ZM462,199h-4.31v-9.41H462V199Zm0-15.35H457.7v-8.1H462v8.1Z" transform="translate(-383.33 -123.82)"/></g><path class="cls-2" d="M448,139.87a47.8,47.8,0,0,0-30.44-11.1c-18.53,0-33.81,16-33.81,16s15.85-20.94,38.06-20.94c47.25,0,53,43.61,53,43.61s-9.29-16.49-17.4-21.78C449.62,140.57,448,139.87,448,139.87Z" transform="translate(-383.33 -123.82)"/><path class="cls-3" d="M427.54,135.55a51,51,0,0,0-41.95,21.92,46,46,0,0,1,36.71-18.39c25.6,0,46.35,21.12,46.35,47.17s-20.75,47.17-46.35,47.17a46.11,46.11,0,0,1-39-21.65A51,51,0,1,0,427.54,135.55Z" transform="translate(-383.33 -123.82)"/></svg>